<?xml version="1.0" encoding="utf-8"?>
<!-- Generator: Adobe Illustrator 19.1.0, SVG Export Plug-In . SVG Version: 6.00 Build 0)  -->
<svg version="1.1" id="Layer_1" xmlns="http://www.w3.org/2000/svg" xmlns:xlink="http://www.w3.org/1999/xlink" x="0px" y="0px"
	 viewBox="0 0 319.3 51" style="enable-background:new 0 0 319.3 51;" xml:space="preserve">
<style type="text/css">
	.st0{fill-rule:evenodd;clip-rule:evenodd;fill:#FED133;}
</style>
<g>
	<path class="st0" d="M319.3,9.9c0,0.1-1.1,0.3-1,0.1C318.8,10,318.8,10,319.3,9.9z"/>
	<path class="st0" d="M317.7,10.1c-1.1,0.3-1.1,0.2-2.8,0.4C315.4,10.3,316.7,10.2,317.7,10.1z"/>
	<path class="st0" d="M314.7,9.5c-0.3,0.1-0.7-0.1-1.4,0C313.7,9.3,314.5,9.4,314.7,9.5z"/>
	<path class="st0" d="M313.1,9.5c0,0.1-0.5,0.1-0.6,0.2c-0.2,0-0.1-0.1-0.2-0.2C312.5,9.5,312.7,9.5,313.1,9.5z"/>
	<path class="st0" d="M313.2,10.8c-0.6-0.2-1.4,0.1-2.4,0.1C311.3,10.8,312.9,10.5,313.2,10.8z"/>
	<path class="st0" d="M310.1,0c0.2,0.2-0.5,0.1-0.6,0.1C308.1,0.3,310-0.1,310.1,0z"/>
	<path class="st0" d="M309.3,13c0,0.2-0.9,0.3-1.4,0.3C308.1,13.1,308.9,13.2,309.3,13z"/>
	<path class="st0" d="M308.6,11.8c-0.1,0.1-0.4,0.1-0.1,0.1c-0.1,0.1-0.7,0-0.6-0.1c0.1-0.1,0.3-0.1,0.6-0.1
		C308.4,11.8,308.5,11.8,308.6,11.8z"/>
	<path class="st0" d="M306.5,13.9c0.5,0-0.8,0.2-0.9,0.1c0,0,0-0.1,0.1-0.1c0.1,0,0.1,0,0.1-0.1C306.1,13.8,306,14,306.5,13.9z"/>
	<path class="st0" d="M305.5,19c0.3,0.1-1.1,0.1-1.5,0.2C304.3,19,304.7,19.1,305.5,19z"/>
	<path class="st0" d="M303.2,17l-0.6,0.1C302.5,16.9,303.3,16.8,303.2,17z"/>
	<path class="st0" d="M300.3,17.4c-0.2,0.3-1,0-1.6,0.2C298.9,17.5,300,17.4,300.3,17.4z"/>
	<path class="st0" d="M295.7,9.5c-0.4,0.1-0.5-0.1-0.9,0C294.8,9.3,295.7,9.3,295.7,9.5z"/>
	<path class="st0" d="M292.2,16.3c-0.2,0.2-1,0.2-1.3,0.2C291.1,16.4,291.8,16.4,292.2,16.3z"/>
	<path class="st0" d="M289.9,16.5c-0.1,0.2-1.3,0.1-1.9,0.3C288.3,16.6,289.7,16.5,289.9,16.5z"/>
	<path class="st0" d="M285.4,10.1c-0.2,0.1-1.1,0.1-0.9-0.1C285,9.9,284.8,10.2,285.4,10.1z"/>
	<path class="st0" d="M286.2,16.5c-0.1,0.2-0.9,0.2-1.4,0.3c-0.1-0.1,1-0.2,0.4-0.2C285.3,16.4,285.8,16.6,286.2,16.5z"/>
	<path class="st0" d="M283.5,17c-0.3-0.1,0-0.1,0.1-0.2c0.3,0,0.8-0.1,0.8,0.1c-0.1,0-0.3,0-0.5,0C283.8,16.9,283.8,16.9,283.5,17z"
		/>
	<path class="st0" d="M283.7,17c-0.4,0.2-1-0.1-1.5,0.1C282.4,16.9,283.4,16.9,283.7,17z"/>
	<path class="st0" d="M282.4,25.4c0.1,0.2-0.7,0.1-0.7,0.1C281.8,25.3,282.1,25.5,282.4,25.4z"/>
	<path class="st0" d="M278.5,21.7c0.1,0.2-0.9,0.2-0.8,0C277.9,21.8,278.2,21.8,278.5,21.7z"/>
	<path class="st0" d="M276,24.3c-0.2,0.1-0.7,0.2-1,0.2C275,24.3,275.7,24.3,276,24.3z"/>
	<path class="st0" d="M275.1,33c-0.1,0.1-0.3,0.1-0.6,0.2c0-0.1-0.2-0.1-0.2-0.2l0.4,0C274.6,33,274.7,33.1,275.1,33z"/>
	<path class="st0" d="M266.1,20.3c-2,0.3-4,0.4-6.2,0.6C261.9,20.1,264.1,20.6,266.1,20.3z"/>
	<path class="st0" d="M267.8,28.7c0.1,0.2-0.8,0.3-0.7,0.1L267.8,28.7z"/>
	<path class="st0" d="M267.2,30.9c-0.1,0.1-0.9,0.1-1,0.1C266.4,30.8,266.9,31,267.2,30.9z"/>
	<path class="st0" d="M265,29c-0.2,0.1-0.6,0.2-1,0.2C263.9,29.1,264.7,29.1,265,29z"/>
	<path class="st0" d="M263.2,29.8c0.7,0-1,0.3-0.7,0.1C262.8,29.8,263.1,30,263.2,29.8z"/>
	<path class="st0" d="M262.2,29.9c0.1,0.1-1.3,0.3-1.2,0.1C261.5,30,261.5,29.9,262.2,29.9z"/>
	<path class="st0" d="M259.7,20.7c0.1,0.2-1,0.2-1,0.3c-0.4,0-0.7,0-0.8-0.1C258.4,20.8,259.3,20.8,259.7,20.7z"/>
	<path class="st0" d="M257.9,23.1c0.6,0.1-0.7,0.2-1,0.2c0,0,0-0.1,0.1-0.1l0-0.1C257.4,23.1,257.9,23.3,257.9,23.1z"/>
	<path class="st0" d="M255.2,23.2c-0.2,0.1-0.3,0.3-1,0.3C254.6,23.4,254.8,23.2,255.2,23.2z"/>
	<path class="st0" d="M255.3,28c-0.2,0.1-0.5,0.1-0.9,0.2C254.3,28,255,28,255.3,28z"/>
	<path class="st0" d="M255.5,30.7c0,0.1-0.3,0.1-0.3,0.1c-0.3-0.1-0.4-0.1-0.8-0.1C254.7,30.6,255.4,30.7,255.5,30.7z"/>
	<path class="st0" d="M255.6,34.9c0.2,0.2-0.7,0.1-1,0.2C254.6,34.9,255.2,34.9,255.6,34.9z"/>
	<path class="st0" d="M245.5,11.7c-0.2,0.1-0.4,0.2-0.8,0.3c-0.1-0.1,0.6-0.2,0.1-0.2C244.9,11.8,245.1,11.7,245.5,11.7z"/>
	<path class="st0" d="M248.7,30.5c-0.3,0.1-1.4,0.2-1.5,0C247.6,30.6,248.1,30.6,248.7,30.5z"/>
	<path class="st0" d="M242.6,10.9c-0.1,0-0.1,0.1-0.1,0.2c-0.8-0.1-0.8,0-1.9,0.1C240.9,11,242,10.9,242.6,10.9z"/>
	<path class="st0" d="M242.1,12.8c-0.2,0.2-1.1,0.2-1.8,0.3C240.7,12.9,241.2,13,242.1,12.8z"/>
	<path class="st0" d="M240.3,11.2c0.1,0.3-1,0-0.7,0.2c0,0.1-0.5,0.1-0.5,0c-2,0.2-0.7-0.1,0.1-0.1c0.1,0,0.1-0.1,0.1-0.1
		C239.8,11.1,239.8,11.2,240.3,11.2z"/>
	<path class="st0" d="M244.2,33.2c-0.1,0.1-0.6,0.2-0.9,0.2C243.5,33.3,243.8,33.2,244.2,33.2z"/>
	<path class="st0" d="M243.1,31.1c-0.5-0.2-1.1,0.1-1.5,0.2c0.1-0.1,0.1-0.1,0.1-0.2c0.5,0,0.8-0.1,1.2-0.2
		C243,31,243,31.1,243.1,31.1z"/>
	<path class="st0" d="M242.9,31.8c-1.1,0.2-2,0.6-3.1,0.5c0-0.1,0.6-0.1,0.9-0.1c0-0.1-0.6,0-1.1,0C240.2,32,242.1,31.7,242.9,31.8z
		"/>
	<path class="st0" d="M237.2,11.4c0,0.1-0.6,0.1-1,0.2C236.3,11.5,236.7,11.5,237.2,11.4z"/>
	<path class="st0" d="M235.8,11.5c0.1,0.1-0.3,0.2-0.7,0.2C235.2,11.6,235.3,11.5,235.8,11.5z"/>
	<path class="st0" d="M234.8,11.7c0.1,0.2-2-0.1-1.6,0.3c-0.2,0-0.4-0.2-0.2-0.3C233.9,11.7,233.9,11.8,234.8,11.7z"/>
	<path class="st0" d="M237.4,32.4l0,0.1c-0.4-0.1-0.8-0.1-1.5,0c-0.1-0.1,0.8,0,0.6-0.2C236.8,32.4,236.9,32.5,237.4,32.4z"/>
	<path class="st0" d="M235.6,24.2c-0.5,0-1.1,0.1-1.2,0C234.9,24.1,235.6,24,235.6,24.2z"/>
	<path class="st0" d="M235.9,32.4c-0.2,0.1-0.3,0.1-0.1,0.3c-0.3-0.1-0.7,0-0.7,0.2c-0.5,0.1-0.1-0.2-0.6-0.1
		C234.9,32.6,235.2,32.4,235.9,32.4z"/>
	<path class="st0" d="M235.6,33.4c-0.1,0.1-1,0.3-0.9,0C234.9,33.5,235.3,33.5,235.6,33.4z"/>
	<path class="st0" d="M234.2,32.6c-0.3,0.1-0.7,0.2-1.2,0.2C233.3,32.7,233.7,32.6,234.2,32.6z"/>
	<path class="st0" d="M233.9,32.4c-0.1,0.2-0.5,0.2-0.9,0.1C233,32.4,233.7,32.5,233.9,32.4z"/>
	<path class="st0" d="M232.5,33.8c0.2,0-1.3,0.2-1.5,0.2C231.2,33.8,232.1,33.9,232.5,33.8z"/>
	<path class="st0" d="M228.1,12.7c0,0.1-0.4,0.1-0.7,0.2c-0.1-0.1,0.1-0.2,0.1-0.3C227.7,12.6,227.8,12.7,228.1,12.7z"/>
	<path class="st0" d="M231.2,32.4c0.2,0.1-1.6,0.4-1.8,0.3C229.4,32.6,231,32.4,231.2,32.4z"/>
	<path class="st0" d="M230.3,36.5l-0.4,0c-0.2,0-0.2-0.2,0.3-0.3C230,36.4,230.4,36.4,230.3,36.5z"/>
	<path class="st0" d="M225.8,13.8c-0.2,0.1-0.1,0.2-0.6,0.3C225.2,13.9,225.3,13.8,225.8,13.8z"/>
	<path class="st0" d="M223.8,13.9c0,0.1-0.5,0.2-0.9,0.2C222.9,14,223.5,14,223.8,13.9z"/>
	<path class="st0" d="M226.5,33.4c-0.2,0.1,0,0.1,0,0.2c-0.2,0-0.7,0-0.6-0.1L226.5,33.4z"/>
	<path class="st0" d="M224.2,33.3c-0.1-0.1,0.1-0.1,0.3-0.1c0-0.1-0.1-0.1-0.2-0.1C224.8,32.8,224.9,33.2,224.2,33.3z"/>
	<path class="st0" d="M224.9,35.7c-0.8,0.2-1.1,0-1.9,0.2C222.9,35.7,224.6,35.6,224.9,35.7z"/>
	<path class="st0" d="M223.3,33.2c-0.1,0.2-0.5,0.2-0.8,0.3c0.1-0.1,0.3-0.2-0.2-0.1c-0.1-0.1,0.6-0.2,0.1-0.2
		C222.9,33,222.8,33.5,223.3,33.2z"/>
	<path class="st0" d="M223.4,33.8c-0.3,0.3-1.6,0.2-2.1,0.2C222.2,33.8,222.6,34,223.4,33.8z"/>
	<path class="st0" d="M219,14c-0.4,0.2-1,0-1.6,0.1C217.8,14,218.6,14,219,14z"/>
	<path class="st0" d="M218.7,36.2c0.2,0,0.1,0.1,0.2,0.1c-0.5,0-1,0.2-0.7,0.3c-0.7,0.2-1.4,0.1-2.2,0.2c0.1-0.1,0.1-0.1,0.1-0.2
		C217.3,36.7,217.7,36.3,218.7,36.2z"/>
	<path class="st0" d="M217.2,34.2c-0.3,0.1-1.6,0.3-1.1,0C216.3,34.4,216.8,34.1,217.2,34.2z"/>
	<path class="st0" d="M216.3,37.1c0.3,0.1-0.9,0.2-0.7,0.1L216.3,37.1z"/>
	<path class="st0" d="M215.5,34.4c0.3,0.1-1.2,0.1-1.5,0.2C214.2,34.4,214.9,34.5,215.5,34.4z"/>
	<path class="st0" d="M215.4,34.3c-0.8,0.2-2.1,0.1-2.7-0.1C213.3,34.1,214.3,34.3,215.4,34.3z"/>
	<path class="st0" d="M215.7,36.7c-0.1,0.3-0.9-0.1-0.9,0.2c-0.2,0-0.1-0.1-0.2-0.2C215.2,36.7,215.3,36.7,215.7,36.7z"/>
	<path class="st0" d="M214.7,35c0,0.1-0.5,0.1-0.7,0.1c0.1-0.2,0.1-0.1,0-0.2C214.3,34.8,214.4,35,214.7,35z"/>
	<path class="st0" d="M213.9,35.4c-0.1,0.1-0.6,0.3-0.7,0.2C213.3,35.5,213.5,35.4,213.9,35.4z"/>
	<path class="st0" d="M212.3,35.2c-0.4,0.1-1.4,0.4-1.8,0.3c0.2-0.1,0.5-0.1,0.3-0.2C211.1,35.3,211.7,35.2,212.3,35.2z"/>
	<path class="st0" d="M207.1,24.8c0.2,0,0.1,0.1,0.2,0.1c-0.5,0.1-0.5,0-0.8,0C206.5,24.8,207.2,25,207.1,24.8z"/>
	<path class="st0" d="M208.2,35.5c0.3,0.2-2.7,0.5-2.3,0.1c0.2,0,0.1,0.1,0.2,0.1C206.7,35.5,207.6,35.7,208.2,35.5z"/>
	<path class="st0" d="M204.2,24.5c-0.2,0.1-0.4,0.2-0.7,0.2l0-0.1C203.8,24.5,204,24.5,204.2,24.5z"/>
	<path class="st0" d="M202.7,25.4c0.1,0-1.1,0.2-1.6,0.2C201.3,25.5,202,25.5,202.7,25.4z"/>
	<path class="st0" d="M199.3,15.2c-0.4,0-0.5-0.1-0.9-0.1C198.5,15,199.3,15.1,199.3,15.2z"/>
	<path class="st0" d="M199.7,25c-0.2,0.1-0.3,0.3-1,0.3C199,25.2,199.2,25.1,199.7,25z"/>
	<path class="st0" d="M200.2,36.6c0,0.1-0.7,0.1-1,0.1C199.3,36.6,199.8,36.5,200.2,36.6z"/>
	<path class="st0" d="M197.7,25.5c0,0.1-0.5,0.1-0.6,0.2c-0.1,0-0.1,0-0.2,0c0,0-0.1,0-0.2,0C196.9,25.5,197.5,25.5,197.7,25.5z"/>
	<path class="st0" d="M193.2,15.6l0,0.1c-0.4,0-3,0.3-1,0C192.5,15.7,192.7,15.6,193.2,15.6z"/>
	<path class="st0" d="M192.3,13.9c-0.2,0.2-0.8,0.2-1.2,0.2C191.2,13.9,191.9,13.9,192.3,13.9z"/>
	<path class="st0" d="M191.5,26.2c0,0.2-1.5,0.2-1.8,0.2C190,26.4,191.1,26.4,191.5,26.2z"/>
	<path class="st0" d="M188.7,14.1c-0.4,0.1-0.7,0.3-0.9,0.1C188.2,14.1,188.4,14,188.7,14.1z"/>
	<path class="st0" d="M187.5,14l0,0.1c-0.2,0-0.7,0-0.6-0.1C187.2,14,187.2,14.1,187.5,14z"/>
	<path class="st0" d="M189.5,37.7c-0.1,0.1-0.3,0.2-0.9,0.2C188.7,37.8,189.2,37.7,189.5,37.7z"/>
	<path class="st0" d="M185.2,16.4c0.6,0.1-0.5,0.1-0.4,0.2c-0.3,0-0.4-0.1-0.3-0.2C184.9,16.3,185.1,16.5,185.2,16.4z"/>
	<path class="st0" d="M184.5,14.6c0,0.2-0.5,0-0.9,0.2l0-0.1C184,14.5,184,14.7,184.5,14.6z"/>
	<path class="st0" d="M183.8,15.2c0.5,0.1-1.1,0.1-0.7,0.3C182.4,15.4,183.2,15.2,183.8,15.2z"/>
	<path class="st0" d="M182.1,14.5c0,0-0.2,0.1-0.3,0.1c-0.2,0-0.1,0.1,0,0c0,0.1-0.4,0.1-0.6,0.1C181.1,14.6,181.6,14.6,182.1,14.5z
		"/>
	<path class="st0" d="M180.1,15.6l0,0.2c-0.2-0.1-0.7,0-1,0C179.1,15.6,179.8,15.6,180.1,15.6z"/>
	<path class="st0" d="M176.3,14.8c-0.5,0.1-0.9,0.2-1.4,0.3C175,14.9,175.5,14.8,176.3,14.8z"/>
	<path class="st0" d="M180.4,38.6c-0.2,0.2-1.3,0.1-1.9,0.2c-0.1-0.1,0.8,0,0.6-0.2C179.5,38.7,179.7,38.6,180.4,38.6z"/>
	<path class="st0" d="M161.5,16.1l0,0.2c0-0.1-0.9-0.1-0.5,0c-0.2,0.2-0.4-0.1-0.7,0C160.6,16.1,161,16.1,161.5,16.1z"/>
	<path class="st0" d="M153.5,16.7c-0.1,0.1-0.5,0.2-1,0.2C152.9,16.8,153.1,16.7,153.5,16.7z"/>
	<path class="st0" d="M156.9,42.4c0,0.1-0.7,0.1-0.7,0.2c0.1,0,0.3,0.1,0.5,0.1c-0.2,0.2-0.8,0-0.6-0.1
		C156.5,42.5,156.6,42.3,156.9,42.4z"/>
	<path class="st0" d="M151.1,18.1C151,18.1,150.9,18.2,151.1,18.1c-0.3,0.2-0.3,0-0.9,0.2C150.2,18.1,150.7,18.1,151.1,18.1z"/>
	<path class="st0" d="M150.5,17.5c-0.2,0.1-1.2,0.2-1.5,0.1C149.2,17.6,150.3,17.5,150.5,17.5z"/>
	<path class="st0" d="M150,18.2c-0.4,0.1-0.9,0.1-1.6,0.1c0.3-0.1,1.2-0.1,1.5-0.2C149.9,18.2,149.9,18.2,150,18.2z"/>
	<path class="st0" d="M142.5,16.9c-0.3,0.2-0.9,0-1.3,0.2C141.1,16.7,142,16.9,142.5,16.9z"/>
	<path class="st0" d="M142.6,17.4c0.2,0.1-0.5,0.1-0.3,0.2c-0.3,0-0.2-0.1-0.5-0.1C141.9,17.3,142.1,17.4,142.6,17.4z"/>
	<path class="st0" d="M142,16.6c-0.2-0.1-0.7,0-0.9,0C141.4,16.4,142,16.4,142,16.6z"/>
	<path class="st0" d="M139.9,17.6c-0.4,0.2-1.9,0.3-2.2,0.2c0.1-0.1,0.4-0.2,0.7-0.2c-0.6,0.2,1.3,0.1,0.9-0.1
		C139.7,17.4,139.4,17.6,139.9,17.6z"/>
	<path class="st0" d="M134.6,18.3l0,0.1c-0.5,0.1-0.3-0.2-0.8-0.1C133.9,18.2,134.5,18.2,134.6,18.3z"/>
	<path class="st0" d="M131.9,18c-0.1,0.3-0.8,0.1-1.3,0.3C130.7,18.1,131.6,18.1,131.9,18z"/>
	<path class="st0" d="M131.3,16.9l0,0.1c-0.1-0.1-1,0.1-0.9-0.1L131.3,16.9z"/>
	<path class="st0" d="M127.4,44.4c0,0.1-0.7,0.2-1.3,0.2c0-0.1-0.1-0.1-0.3-0.1C126.1,44.4,126.9,44.5,127.4,44.4z"/>
	<path class="st0" d="M122,16.6c-0.2,0.1-0.9,0.1-1.2,0.2C120.9,16.6,121.6,16.6,122,16.6z"/>
	<path class="st0" d="M112,45.5c-0.1,0.1-0.4,0.2-0.7,0.2C111.1,45.5,111.6,45.5,112,45.5z"/>
	<path class="st0" d="M98,46.9C98,46.9,97.6,47,97.9,47c-0.6,0.2-1.7,0.2-2.4,0.2C96.4,47,96.9,47,98,46.9z"/>
	<path class="st0" d="M97.6,46.3c-0.3,0.2-0.8,0.2-1.2,0.4C96.6,46.3,97,46.3,97.6,46.3z"/>
	<path class="st0" d="M95.3,46.8c0,0.1,0.3,0,0.5,0c-0.2,0.2-0.8,0.2-1,0.3c-0.3,0-0.1-0.1,0.1-0.1c-0.2-0.2,0-0.1-0.2-0.3
		c0.5-0.1,0.9-0.1,1.3-0.2c0.2,0,0.3,0.1,0.3,0.2C95.9,46.9,95.6,46.6,95.3,46.8z"/>
	<path class="st0" d="M94.6,47.3c-0.2,0.2-0.7,0.1-1,0.2c-0.6,0.1,0.2,0.3-0.6,0C93.6,47.3,93.9,47.4,94.6,47.3z"/>
	<path class="st0" d="M89.6,18.6c-0.1,0.3-0.7,0-1.2,0.2C88.3,18.6,89.2,18.6,89.6,18.6z"/>
	<path class="st0" d="M90,47.6c0.1,0.1-1.1,0.2-1.6,0.2C88.7,47.7,89.3,47.6,90,47.6z"/>
	<path class="st0" d="M86.9,47.4c-0.3-0.1-0.4,0-0.7,0C86,47.3,87.1,47.2,86.9,47.4z"/>
	<path class="st0" d="M85.3,46.7c-0.2,0.1-0.4,0-0.9,0.1C84.3,46.6,85.2,46.6,85.3,46.7z"/>
	<path class="st0" d="M78.6,18.4c-0.5-0.1-0.7,0.1-1.2,0.1C77.4,18.4,78.5,18.1,78.6,18.4z"/>
	<path class="st0" d="M81.3,41.7l0,0.1c-0.4,0.1-0.9,0.1-1.3,0.1C80.5,41.8,80.7,41.7,81.3,41.7z"/>
	<path class="st0" d="M75.7,43.8c0,0.1-0.2,0.1-0.6,0.1c0-0.1,0-0.1-0.2-0.1C75,43.7,75.7,43.8,75.7,43.8z"/>
	<path class="st0" d="M75.3,44.1c-0.2,0.1-0.5,0-1,0.1C74.2,44,74.7,44,75.2,44C75.2,44,75.2,44.1,75.3,44.1z"/>
	<path class="st0" d="M73.7,45.6c-0.5,0.1-0.7,0.1-1.3,0.3c-0.1,0-0.1-0.1-0.3-0.1c-0.1-0.1,0.7,0,0.4-0.2
		C73,45.7,73,45.6,73.7,45.6z"/>
	<path class="st0" d="M67.8,40.6c0.1,0.3-1,0.1-1.5,0.2c0,0.2,0.7,0.1,1.1,0c-0.1,0.4-1.6-0.1-1.5,0.3c-0.4,0-0.7,0-1.2,0
		c-0.2-0.2,0.6-0.1,0.9-0.2c-0.6-0.2,0.5-0.2-0.2-0.4C66.2,40.7,66.9,40.7,67.8,40.6z"/>
	<path class="st0" d="M62.8,19.3c0.1,0.3-0.8,0-0.9,0.3c-0.3-0.1,0.4-0.3-0.2-0.4C62.2,19,62.3,19.4,62.8,19.3z"/>
	<path class="st0" d="M58.6,20.3c-0.7,0.1,0.5,0.2-0.9,0.4l0-0.2C58.2,20.4,58,20.3,58.6,20.3z"/>
	<path class="st0" d="M57.8,20c-0.8,0.1-1,0.5-2,0.6c0,0.1,0.2,0.1,0.2,0.1c0.3-0.1,0.8-0.1,1.2-0.2c0.1,0.1-0.4,0.5,0.7,0.5
		c-0.7,0.3-1.2-0.3-2.3-0.2c0-0.2-0.3-0.3-0.6-0.4c0.3-0.1,0.6-0.3,1-0.4c0.5,0,0.8,0,0.9,0.1C57.1,20,57.1,20,57.8,20z"/>
	<path class="st0" d="M56.2,21.6c-1,0.1-0.1-0.3-1.1-0.2c0.3-0.1,0.4-0.2,0.7-0.2C55.7,21.4,56.3,21.4,56.2,21.6z"/>
	<path class="st0" d="M54.2,43.8c-0.4,0.2-0.1,0.1,0,0.3c-0.3,0-0.3,0.1-0.6,0.1C53.9,44,53.5,43.7,54.2,43.8z"/>
	<path class="st0" d="M53.2,46.7c-0.3,0.1-0.9,0.2-0.8-0.1C52.9,46.6,52.8,46.7,53.2,46.7z"/>
	<path class="st0" d="M48.8,48c0.1,0.2-1.3,0.2-1.5,0.1c-0.4,0-0.3,0.2-0.4,0.3c-0.4-0.1-0.5-0.3-0.8-0.4c0.3-0.1,1.7-0.1,1.4,0
		C48,48,48.4,47.9,48.8,48z"/>
	<path class="st0" d="M46,42.7c-0.2,0.1-1,0.1-1.2,0C45,42.6,45.6,42.8,46,42.7z"/>
	<path class="st0" d="M41.5,41.7c-0.5,0.1-0.8,0.2-1.3,0.3C40.2,41.7,40.9,41.7,41.5,41.7z"/>
	<path class="st0" d="M39.8,34.8l0,0.1c-0.2,0-0.8,0.1-0.7,0C38.9,34.8,39.6,34.9,39.8,34.8z"/>
	<path class="st0" d="M38.9,34.5c0,0.1-0.4,0.2-0.7,0.2c0-0.2-0.6-0.1-0.2-0.3C38.5,34.4,38.3,34.6,38.9,34.5z"/>
	<path class="st0" d="M34.3,39c-0.3,0.1-1.1,0.2-1.1,0C33.7,39,33.9,39,34.3,39z"/>
	<path class="st0" d="M31.7,37.2c-1.4,0.3-3.7,0.1-4.4-0.3C28.5,37,29.8,37.3,31.7,37.2z"/>
	<path class="st0" d="M25.7,35.7c-0.1,0.2-0.6,0-1.2,0.1c0,0.1,0.1,0.2,0.5,0.1c-0.4,0.2-0.9-0.1-1.1-0.1c-0.1-0.1,0.4-0.1,0.3-0.3
		C24.9,35.5,25.2,35.6,25.7,35.7z"/>
	<path class="st0" d="M21,25c-0.7,0.2-1.6,0-2.2,0C19.4,24.8,20.1,25,21,25z"/>
	<path class="st0" d="M1,27c-0.1,0.1-0.2,0.1-0.3,0.2c-0.4-0.1-0.9-0.1-0.6-0.3C0.5,26.8,0.7,26.9,1,27z"/>
	<path class="st0" d="M314.8,8.6c-1.3,0-3.1,0.1-4,0.3c-0.6-0.3-3,0.4-3.3-0.1c-0.6,0-0.2,0.3-0.8,0.3c-0.5,0-0.9-0.1-1.4-0.1
		c-0.4,0.2-1.3,0.2-1.5,0.1c0.2,0,0.1-0.1,0.3-0.1c0.6,0.1,2.1-0.1,2.7-0.3c-1.1,0.1-2.5,0.1-3.4,0.3c0.2,0,0.4-0.1,0.5,0
		c-0.4,0-0.4,0.2-0.9,0.2c-0.1-0.1,0.4-0.2-0.2-0.1c-0.2,0.1-0.3,0.2-0.6,0.2c-1,0-2.5,0-3.4,0.3c-1.4-0.3-4.2,0.5-4.5-0.1
		c-1.2,0.2-2.4,0.4-3.6,0.3c-0.3,0-0.1,0.2-0.4,0.2c-1.2-0.2-3,0.4-4.4,0.4c0.1-0.2,1.5-0.1,1-0.3c-2.1,0.4-3.9,0.2-5.5,0.3
		c0-0.1,0.6-0.1,0.6-0.3c-0.5,0.1-1.5,0.1-2.1,0.2c-0.1-0.1-0.2-0.1-0.2-0.2c-1.1,0.2-2.1,0.1-3.3,0.1c-0.2,0.1,0.4,0.1,0,0.2
		l-0.9,0.1c0.2-0.1,0.2-0.2-0.2-0.2c-1.2,0.2-2.8,0.2-4,0.5c0.4-0.2-0.4,0-0.5,0c0,0,0-0.1,0-0.1c-2.3,0-6.7,0.9-7.8,0.7
		c0.3,0.1-0.6,0.4-1.2,0.3c-0.1-0.1,0.3-0.1,0.3-0.2c-3.6,0.4-7.5,0.7-11.7,1.1c0.1,0,0.3,0,0.3,0c-2,0.1-2.8,0.1-4.5,0.3
		c-1.5,0.1-4.2,0.4-5,0.4c0.1,0,0.9,0,0.5,0.1c-1.6-0.2-3,0-5.2,0.2c-0.2-0.2-1.8-0.1-1.8,0.2c0.5,0,0.7-0.1,0.9-0.2
		c0.2,0.1,0.8-0.1,0.6,0.1c-0.8,0.1-3.1,0.3-2,0c-2.3,0.4-3,0.1-5,0.4c-0.5-0.4-3.2,0.2-3-0.1c-0.5,0.2-1.4,0.2-1.9,0.1
		c1.3-0.2,2.2-0.2,2.9-0.4c-0.5,0.1-0.9,0.1-1.1,0c-0.6,0.2-1.3,0.3-1.9,0.2c0.1,0.2-0.6,0.1-0.7,0.1c-0.2,0.2,0.5,0,0.3,0.2
		c-0.9,0.2-2.1,0.2-3.1,0.1c0.3,0,0.5-0.1,0.6-0.2c-0.8,0.1-1.8,0-1.9,0.3c0.3,0,1-0.1,1,0c-1.1,0.2-1.8,0.2-2.5,0.1
		c0.2,0,1.1-0.1,0.6-0.1c-0.7,0-0.9,0.1-1.3,0.2c-1.6-0.2-2.6,0-4.2,0c-0.2,0.2-1.1,0.2-1.7,0.3c0-0.1-0.1-0.1-0.2-0.1
		c-0.1-0.1,0.6-0.1,0.4-0.2c-0.6,0-1.9,0.2-2.8,0.1c-0.4,0.1-2.1,0.4-2.4,0.1c1-0.1,1.9-0.3,2.5-0.2c0.1-0.2,3.1-0.2,2.8-0.4
		c0.1,0.1,0.3,0.1,0.6,0.1c0.2-0.1,0.6-0.2,1-0.4c0,0.4,0.9-0.2,1.1,0.1c0.5,0,0.3-0.2,0.6-0.2c0.4,0,0.6,0.1,1.1,0.1
		c3.3-0.7,7.2-0.6,10.5-1c-0.8,0-1.7,0.1-2.1,0c0.3,0,0.8,0.1,0.9-0.1c-0.3,0-0.7,0.1-0.9,0c0.8-0.2,1.4,0.1,1.6-0.1
		c-0.9,0.1,0-0.2,0-0.2c-0.3-0.1-0.7,0.1-1.2,0c0,0.1,0.2,0.1,0.2,0.2c-0.3,0-0.3-0.1-0.6-0.1c-2,0.7-5.2,0.5-7.6,1
		c-0.2-0.2-0.7-0.1-0.6,0.1c-0.7,0-0.8-0.1-1.1-0.2c-0.6,0.4-2.4,0.2-3.2,0.5c-1-0.2-3,0.3-4,0.4c0.1,0,0.2,0,0.2,0.1
		c-0.5,0.1-0.8,0.2-1.2,0.1c0.3-0.2,0.3,0,0.7,0c-1.1-0.3-2.8,0.2-4.3,0.2c-0.2,0.1-0.6,0.2-0.9,0.2c-0.3-0.1-1.1,0-1.8,0.1
		c-0.1,0.2-0.3,0.3-1,0.3c0.8,0.3,2.2,0.1,3.1-0.1c-0.5,0.2,0.3,0.2-0.2,0.4c-0.5-0.2-2.8,0.2-3.4,0.2c0.3,0,0.6,0,0.6,0.1
		c-0.4,0-1.2,0.2-1.6,0.1c0.7,0,0.5-0.2,1-0.1c-0.3-0.1-0.7-0.2-1.2-0.2c-0.1,0.2,0.5,0,0.3,0.2c-0.1,0-0.2,0.1-0.3,0.1
		c-0.2-0.1-1.6,0.1-1.2-0.1c-1.1,0.2-2.7,0.3-3.1,0c-1.8,0.3-3.2,0.5-5,0.6c0-0.1,0-0.2-0.2-0.2c-0.1,0.1-0.5,0.2-0.7,0.3
		c-0.1-0.2-0.4,0-0.5-0.1c0.2,0,0.2-0.1,0.3-0.2c-0.3,0-0.6,0-0.7,0c-0.1,0.2,0.5,0,0.3,0.2c-0.4,0-0.4,0.1-0.7,0.2
		c-0.6-0.1-1.4,0.3-2.5,0.2c0-0.1,0.2-0.1,0.1-0.2c-0.5,0.1-0.5,0.3-1,0.3c0-0.1,0.2-0.1,0.3-0.2c-0.7,0.4-2.5,0.2-3,0.2
		c0.2,0,0.4,0.1,0.2,0.1c-2.4,0.1-4.4,0.4-6.7,0.6c0-0.1,0.2-0.1,0-0.1c-1,0.1-6,1.1-5.2,0.4c-0.1,0-0.3,0-0.3,0
		c0.2,0,0.4,0,0.4-0.1c-0.5,0-1.3,0.2-1.9,0.3c-0.2-0.1-0.3-0.1-0.5-0.2c-1,0.4-1.9,0-3,0.2c-0.1-0.1,0.6-0.1,0.4-0.2
		c-1.5,0.5-4.1,0.4-6.2,0.7c-0.1-0.1,0.8,0,0.6-0.2c-1.5,0.3-4.4,0.3-6.3,0.6c0.4-0.2-0.6,0-0.6-0.1c1.2-0.4,2.7-0.2,4.4-0.7
		c-0.1-0.1,0.1-0.3-0.2-0.2c-0.4,0.5-2.3,0.4-3.5,0.6c-0.1-0.1-0.5,0-0.3-0.2c-1.1,0.4-3.4,0.5-5.2,0.5c-0.4,0.2-1.5,0.1-2.2,0.3
		c0.3-0.1,0.2-0.3,0.7-0.4c0.2,0.1-0.4,0.2,0.2,0.2c0.1-0.4,2.1-0.3,2.5-0.4c-0.4,0,0.2-0.1,0-0.2c-0.6,0.2-1.2,0.1-1.7,0.3
		c-0.4-0.1-1.6-0.2-0.9,0.1c-0.6-0.2-1.7,0.1-2.3-0.1c1.6-0.1,2.2-0.4,3.4-0.5c-0.7-0.1-1.1,0-1.8,0c0-0.1,0.1-0.1,0.1-0.2
		c-2.1,0.1-3.6,0.3-5.2,0.1c0,0.1,0,0.1-0.1,0.2c-1-0.1-2.7,0.1-3.7,0.2c0.2,0,0.4,0,0.3,0.1c-0.6,0.1-1.4,0.2-1.5,0
		c-0.3,0-0.1,0.2-0.6,0.2c-0.5-0.1-0.7-0.3-1.2-0.3c0.5,0.2-2,0.4-1.3,0.1c-0.9,0-1.4,0.2-2.1,0c-0.3,0.1-0.5,0.2-0.8,0.3
		c0.2,0.5-0.1,0.5,0,0.9c0.8-0.2,1.3-0.3,1.6,0c0.1-0.1,1.3-0.2,1.6-0.1c1-0.4,2.4-0.1,4-0.3c0,0.2,0.5,0,0.8,0.2
		c-0.5,0.1-1,0.1-1.5,0.2c0.2-0.2-0.1-0.2-0.3-0.3c-0.2,0.2-0.9,0.2-1.2,0.1c-0.1,0.2,0.6,0,0.8,0.1c-0.6,0.1-1.2,0.2-1.7,0.3
		c-0.3-0.3-1.4-0.2-2.1,0c-0.3-0.1-0.3-0.1,0-0.2c-1.3,0.3-3,0.4-4,0.3c-0.3,0.4-1.6,0-2.1,0.1c0.2,0,0.4,0.1,0.5,0.1
		c-0.5,0-0.4,0.1-0.9,0.1c0-0.2-0.6-0.1-0.9-0.2c-0.1,0.1,0.5,0.1,0,0.2c-1.3,0-1.7,0-2.7,0.2c-0.2-0.2,0-0.3-0.9-0.2
		c0,0.1,0,0.2-0.1,0.2c0.4,0,0.6-0.2,0.7-0.1c-0.8,0.2-1.5-0.1-2.2,0.3c-0.2,0-0.6,0-0.5-0.2c0.3,0,0.1,0.2,0.6,0.1
		c-0.2-0.2,0.5-0.3,1-0.3c-1,0-1.6-0.4-2-0.1c-1.5,0-2.5-0.1-4.1-0.2c0-0.1,0.2-0.1,0.3-0.2c-0.8,0-1.2,0.3-1.3,0
		c0.7-0.1,1.6-0.1,1.9-0.2c-0.3,0-0.5,0-0.6-0.1c0.7,0.1,0.1-0.2,1.3-0.2c-0.1-0.2,0.4-0.2,0.4-0.3c-0.4-0.1-1,0-1.2-0.1
		c1.1-0.2,1.8-0.2,2.5-0.1c-0.2,0-0.8,0-0.7,0.1c0.8-0.1-0.5,0.2,0.3,0.1c0.4-0.2,0.9-0.3,1.4-0.4c-0.3,0.2,0.7-0.2,0.9,0.1
		c0.2-0.1,0.3-0.2,0.6-0.2c1.2,0.2,3.4,0,4.6,0c-0.2,0-0.7,0-0.6-0.2c0.1,0,0.2-0.1,0.3-0.1c0.5,0.2,1.4-0.1,1.7,0.1
		c0.8-0.1,0.7-0.1,1.2,0c0.1-0.1-0.1-0.2,0.7-0.3c0,0.1-0.4,0.1-0.4,0.2c1.2-0.1,3.2-0.4,4-0.2c1.8-0.9,5-0.1,6.5-0.7
		c0,0.1,0.3,0,0.3,0.1c-0.4,0-0.5,0.1-0.4,0.2c0.7-0.1,0.7,0,1.8,0c-0.3-0.3-1.4-0.1-1.8-0.3c0.3-0.1,1.1-0.1,1.6-0.2
		c-0.2-0.1-1.5,0-1.9,0c0,0-0.1,0.2-0.3,0.2c-0.2,0-0.4-0.1-0.6-0.1c-1,0-2.4,0.4-3,0.1c0.5,0,0.8-0.1,0.9-0.2
		c-2.5,0.3-4,0.3-6.8,0.5c0,0,0.1-0.1,0.1-0.1c-0.9,0.2-2,0.1-3.1,0.4c0-0.1,0.2-0.1,0.3-0.2c-0.6,0.1-1.1,0.2-1.6,0.3
		c0.3-0.1-0.5-0.1-0.6-0.3c0,0.1-0.1,0.2-0.4,0.2c-0.3,0,0.2-0.1-0.2-0.1c-0.8,0.1-1.6,0.2-2.2,0.4c0-0.1,0.7-0.2,0.3-0.3
		c-0.9,0.3-3.4,0.1-4.3,0.2c0.4,0-0.4,0.2-0.6,0.1c-0.2,0.1,0.6,0.1,0.2,0.2c-0.2-0.2-1.2,0-1.4-0.1c-0.3-0.2,0.5-0.1,0.4-0.2
		c-0.6-0.1-1.3-0.1-2.1-0.1c1.4-0.3,4.1-0.1,6-0.6c-0.1-0.1-0.6,0.1-0.9,0.1c-0.1-0.3-0.5,0-0.9-0.1c0.3-0.4,1.6-0.1,2.2-0.3
		c-0.2,0-0.4,0-0.3-0.1c0.1,0,0.2-0.1,0.3-0.1c0.9,0,2.6,0,2.6-0.2c0.7,0,1.3,0.3,2,0.1c-0.8,0-1.5-0.1-1.8-0.3
		c0-0.1,1.1-0.1,0.6-0.1c-1.1,0.2-1.5,0.2-2.5,0.3c0.1,0.1,0.7-0.1,0.6,0.1c-0.4,0-1.1,0.1-1.2,0c0.4-0.1-0.3-0.2-0.3-0.1
		c0.4,0-0.1,0.2-0.3,0.2c0-0.1-0.4,0-0.6,0c0-0.1-0.1-0.2-0.2-0.2c-0.5,0-0.7,0.1-1,0.2c-1.9-0.1-4.5,0.6-6.3,0.6
		c0.1,0,0.2,0,0.1-0.1c-0.3,0.2-1.2,0.1-1.2,0.3c-0.2,0-1-0.1-1,0c0.1,0.1,0.7-0.1,0.8,0c0,0.1-0.2,0.1-0.3,0.1
		c-0.4-0.1-0.5,0-0.9,0.1c-0.2,0-0.3-0.1-0.5-0.1c-0.9,0.1-1.3,0.2-2.2,0.3c0-0.1,0.1-0.1,0.1-0.2c-0.4,0.1-0.7,0.1-1,0
		c0.4-0.1,0.7-0.2,1-0.3c-0.6,0.1-1.7,0.1-1.9,0.4c0.3,0,0.6-0.2,0.7-0.1c-0.4,0.1-0.8,0.2-1.2,0.3c0-0.1-0.2-0.1-0.5-0.1
		c0.3-0.1-0.2-0.3-0.5-0.3c-0.1,0.2,0.3,0.2,0.3,0.3c-0.7,0-0.1,0.1-0.4,0.1c-0.8,0.1-0.9-0.1-1.5-0.1c0.2-0.2,0.7-0.2,1-0.4
		c-0.8,0-0.9,0.2-1.6,0.3c0-0.1,0.3-0.2-0.2-0.2c-0.9,0.4-2.8,0.4-4,0.5c0.2,0.1,0.4-0.1,0.6,0c0,0.1-0.3,0.1-0.4,0.1
		c-0.1-0.1-0.6-0.1-0.5-0.3c-0.8,0.2-1.7,0.1-2.8,0.3c-0.1-0.1-0.4-0.3-0.8-0.1c0.2,0,0.4,0,0.3,0.1c-0.6,0.1-1.1,0.1-2.1,0.2
		c-0.1-0.3-1.4-0.2-2-0.4c-0.3,0.1,0.2,0.1-0.1,0.2c-1.5-0.1-2.5-0.1-4.5-0.1c1-0.1-0.9,0-0.3-0.2c-0.6,0.2-1.8,0.3-2.2,0.2
		c0.2-0.1,0.3,0.2,0,0.2c-0.3-0.1-0.1-0.2-0.6-0.1c0.1-0.2-0.1-0.3-0.5-0.3c-0.2,0,0,0.2-0.3,0.2c-0.5,0-0.6,0-0.9,0
		c0.2,0,0.4-0.1,0.4-0.2c-0.5,0.1-0.3-0.1-0.2-0.1c-0.5,0-0.9,0-1.2-0.1c0,0.2,0.4,0.3,0.1,0.5c0.5,0,0.4,0.2,0.6,0.3
		c-2.2,0.2-5.1,0.1-7-0.1c0.3-0.2,0.2-0.3-0.2-0.4c-0.8,1-3.7,0.1-5.6,0.6c-0.2,0.3,0.2,0.3,0.2,0.6c-1.2,0-1.4,0.3-1.9,0.5
		c-0.9,0.1-1.2,0.1-2.2,0.2c0-0.1-0.1-0.1-0.3-0.1c-0.4,0.1,0.4,0.1,0.2,0.2c-1,0.1-1.2,0.6-2.2,0.5c0.3,0.3,0,0.4-0.1,0.6
		c0-0.1-0.4,0-0.4,0c0.2,0,0,0.1-0.3,0.1c0.3-0.1-0.8-0.3-0.9-0.1c0.5,0.1,1.5,0.1,1.1,0.4c0.5-0.1,0.8,0,0.9,0.1
		c-0.2,0.1-0.4,0.2-0.6,0.2c0.1,0.1,0.4,0.1,0.6,0.2c-0.6,0.2-2.3,0.4-3.1,0.1c-0.6,0.1-1.2,0.6-1.8,0.3c0.2,0,0.7-0.1,0.9-0.3
		c-0.6,0-1.3,0.4-1.8,0.2c1.2-0.4,3.1-0.7,4.8-0.7c-1.1-0.2-3.1,0.1-4.6,0.4c-0.6-0.1-2,0.1-2.8,0.3c-0.3,0-0.4-0.1-0.8-0.2
		c-1.1,0.1-3.6,0.7-3.6,0.1c-0.5,0-0.1,0.2-0.4,0.2c-0.3,0-0.5-0.1-0.5-0.2c1.4-0.5,3.4-0.9,4.9-1.4c-0.4-0.1-1-0.1-1.1-0.4
		c-3.3,0.2-4.3,1.4-7.7,1.6c0.5,0.4-0.8,0.7,0,1.1c-0.3,0-0.5,0-0.6,0.1c0.2,0.4,0.5,0.6-0.2,1c0,0.1,0.4,0,0.5,0.1
		c-0.5,0-0.4,0.2-0.6,0.3c0.1,0.1,0.6,0,0.6,0.1c0.7,1.1,1.7,1.6,3.1,2.7c1.2,0.2,1.8,0.6,2.9,0.8c-0.3,0.2,0.8,0.4,0.4,0.6
		c0.3,0,0.6,0,0.6,0.1c-0.3,0-0.6,0-0.6,0.1c0.7-0.1,0.3,0.2,0.3,0.2c0.5,0.4,1.7,0.6,2.1,1c-1.6,0.3-3.2-0.3-4.5,0
		c-0.5-0.1-1.4-0.1-1.5-0.4c0.5,0,0.9-0.1,0.9-0.2c-1-0.1-2.1-0.2-3.6-0.2c-0.3-0.4-2.2-0.2-3.3-0.3c0-0.1,0.4-0.1,0.3-0.2
		c-1.6,0.2-3.6,0.2-5.2,0.1c-0.6-0.5-4-0.2-4.1-0.8c-0.7,0-1.5,0-1.8-0.2c0.2-0.3,0.7-0.4,0.5-0.8c-0.4-0.2-1.6-0.2-2.3-0.3
		c0,0.2-0.9,0.4-1.5,0.3c0.1-0.1,0.4-0.1,0.6-0.2c-0.6-0.3-0.5-0.5-1-0.8c-0.5,0-1.2,0.1-1.3-0.1c0.3,0,0.6,0.1,0.7,0
		c-0.5,0-0.5-0.2-0.9-0.2c0,0.3-0.6,0-0.9,0c-0.4,0.1,0.1,0.2-0.3,0.4c-1.9,0.1-3.3-0.8-4.5-0.2c0.2,0.1,0.6,0,1,0
		c1,0.4,2.3,0.6,3.7,0.9c0,0.1-0.2,0.1-0.1,0.2c0.5-0.1,0.8-0.2,1.3-0.2c0.2,0.1,0.4,0.2,1.1,0.1c-0.6,0.3,0.5,0.2,0.5,0.4
		c-0.5,0.1-0.4,0.1-0.3,0.3c-0.3,0-0.2,0.1-0.6,0.1c-1.3-0.1-2.9-0.1-4.6-0.1c0.7,0.3,2.1,0.3,3.2,0.4c-0.2,0.5,0.4,0.6,1.3,0.8
		c0.5,0,0.1-0.2,0.6-0.1c0.5,0.5,1.9,0.8,1.6,1.4c-1.8,0.1-1.8,0.6-3.7,0.7c0,0.2-0.6,0.3-0.7,0.5c0.1,0.1,0.3,0.1,0.5,0.2
		c-0.1,0.1-0.4,0.2-0.7,0.3c-0.4,0.7,1.5,0.4,1.6,0.9c-1.3,0.2-3.2,0.2-4.1,0.5c0.6,0,0.8,0.3,0.3,0.5c0.8,0.1,1,0.5,1.9,0.6
		c1.4-0.3,1.3-0.9,3-1.2c1,0.7,5.4,0.4,6.8,0.5c-0.2,0-0.3,0-0.3-0.1c0.7-0.1,1.1,0,1.5,0c-0.1-0.2,0.7-0.1,0.9-0.2
		c-0.2,0-0.5,0-0.5-0.2c2.3-0.1,3.6-0.5,5.9-0.7c0-0.1,0-0.1,0.1-0.2c3.2-0.1,5.2-0.5,8.1-0.7c0-0.1,0-0.1,0.1-0.2
		c0.6,0.1,1.4,0,1.8,0c-0.1,0-0.2,0-0.2-0.1c2.3,0,5.3-0.5,5.9,0.2c-0.2,0-0.4,0-0.4,0.1c0.4,0.1,1.2,0.2,0.8,0.4
		c0.8-0.1,1.3,0.2,0.9,0.3c0.1,0.1,0.2,0.1,0.2,0.2c0.5,0,0.3,0,0.6-0.1c0,0.1,0.1,0.1,0.2,0.1c-0.2,0-0.5,0-0.4,0.1
		c1-0.1,0.2,0.2,0.6,0.3c0.6-0.1,0.3-0.3,1.2-0.3c-0.3,0.1,0.1,0.2,0,0.3c-0.1,0-0.6-0.1-0.6,0c0.4,0,0.3,0.2,0.5,0.2
		c0.3,0,0.5,0,0.6-0.1c-0.5,0.2,0.8-0.1,0.5,0.2c-1-0.1-1.8,0.1-2.8,0.2c-0.4-0.3-2.2-0.1-2.6-0.4c0.2,0,0.3-0.1,0.4-0.1
		c-0.3,0-0.4-0.2-0.6-0.2c-1.6,0.2-1.9-0.6-3.7-0.6c0,0.3-0.8,0.3-1.5,0.3c0,0.2-0.5,0.2-1,0.2c0.4,0.4-1.2,0.6-0.6,0.9
		c-0.2-0.1-0.6,0-0.6,0.1c0.1,0.1,0.7-0.1,0.6,0.1c0,0.1-0.4,0.1-0.6,0.1c0.1,0.5,1.9,0.4,2.5,0.7c-2.3,0.4-3.5-0.3-5.4,0l0-0.2
		c-1.8-0.1-1.7,0.7-3.2,0.7c-0.7,0.3-1.7,0.6-3.1,0.8c0.1,0.1-0.9,0.2-1,0.4c-2.5,0.1,0.1,0.9-0.3,1.3c0.5,0.2,1.2,0.3,1.4,0.5
		c-0.6,0-0.4,0.1-0.1,0.2l-0.6,0c0.1,0.3-0.5,0.4,0.2,0.5c1.5-0.2,2.8-0.1,3.5,0.3c-0.2,0-0.1,0.1-0.4,0.1c-0.1,0.2,0.8,0.1,0.8,0.3
		c-1,0-1.2-0.4-2.1-0.4c0.1,0.1-0.2,0.1-0.1,0.3c0.3,0,0.3-0.1,0.6-0.1c-0.3,0.1,0.3,0.1,0.3,0.3c0.6,0,0.6,0.1,1.2,0.1
		c0.1-0.1,0.9-0.2,1-0.1c-0.9,0,0.3,0.1-0.4,0.2c1.3,0,1.7,0.1,2.4,0.1c-0.5,0.1-0.8,0.2-0.9,0.4c0.4-0.1,0.3,0.1,0.5,0.1
		c1.9,0,2.7,0.5,5,0.4c-0.6,0.3-1.9,0.2-3.4,0.4c-0.2,0.2-0.6,0.3-0.5,0.5c1.6-0.1,3.7,0.2,5.4-0.2c1,0.3,3.3-0.3,5.1-0.3
		c0.7,0,2.3-0.1,2.7-0.5c2.1-0.1,4.3-0.4,7-0.6c0.2,0.1-0.4,0.2,0.2,0.2c0.7-0.3,2.5-0.3,3.3-0.4c-2.5,0.1-4.8,0.1-7.3,0.3
		c0-0.1-0.3-0.1-0.3-0.1c1.6,0,3.7-0.9,3.4-0.5c0.1-0.1,0.8,0.1,1.4,0c0.3-0.5,1.5-0.1,2.5-0.2c-0.1-0.1,0.6-0.1,0.4-0.2
		c-0.1-0.1-0.6-0.1-0.6-0.3c0.9-0.4,1.9-0.2,3.3-0.3c0.1,0.1,0.2,0.1,0,0.1c0.4-0.1,1.4-0.2,1.4,0c-0.7,0.1-0.3,0-0.8,0
		c-0.3,0.2,0.1,0.3,0.5,0.3c-0.4,0.1-0.4,0.4-1,0.5c0.3,0,0.5,0,0.6,0.1c-0.1,0.1-0.6,0.1-0.6,0.3c0.5-0.1,1.2-0.1,2,0
		c0-0.3,0.9-0.2,1.2-0.2c-0.2,0.2-0.6,0.2-1,0.2c0.3,0.2-0.6,0.1-0.4,0.3c0.6,0,2.2-0.7,3-0.3c-1.3,0-1.6,0.3-2.3,0.4
		c-0.4,0.7,1.4,0.4,2.3,0.6c1.3-0.1,3.2,0,4.2-0.2c-0.5,0-1.5,0.1-1.7-0.1c0.3-0.3,0.9,0.1,1-0.2c-0.7,0-0.9,0.1-1.2-0.1
		c0.2,0,0.1-0.1,0.3-0.1c0.6,0,1.3,0.1,1.2,0.3c-0.1-0.2,0.4,0.1,0.4-0.1c-0.2,0-0.2-0.1-0.3-0.2c-0.7,0.1-1.2,0-1.4-0.2
		c1.1-0.3,2-0.1,2.8-0.5c0.1,0.1,1.1,0.1,1.4,0c-0.3,0-0.4,0-0.3-0.1c2.2,0.1,3.4,0,5.4-0.1c-0.5,0.2-0.8,0.1-1.5,0.2
		c0.3,0.1,0.8,0.1,0.9,0.2c-0.5,0.1-0.9,0.3-0.9,0.4c-0.8,0.1-1.3,0.3-2.2,0.2c0.3,0.2,1,0,1.5,0c0,0,0.1,0.1,0.2,0.1
		c-0.7,0.3-0.3,0.5,0,0.9c-3,0.5-5.6,0-8.7,0.5c-1.1,0-2.3-0.2-3.9,0c0-0.1-0.3-0.1-0.2-0.2c-1.3,0.2-2.5,0.1-3.5,0
		c-0.1,0.3-1.3,0-1.8,0.2c-0.1-0.1-0.2-0.1,0-0.1c-1.1,0.4-1.9-0.2-3.3,0.1c0.6,0-0.5,0.3,0.6,0.2c0.2-0.1-0.4-0.2,0-0.2
		c0,0.3,1.2,0.2,1.7,0.4c0.8-0.3,1.7-0.1,2.8-0.2c0.1,0.1,0.4,0.4,0.8,0.2c-0.6,0.1,0.1-0.2,0.1-0.3c0.9-0.1,1.7,0.1,2.4,0.1
		c-0.2,0.2-0.2,0.2-0.9,0.2c0,0.2,0.2,0.1,0,0.3c0.7,0,0.7-0.1,1-0.2c-0.2,0.3,1.7,0,2.3,0.2c0-0.1,0.1-0.2,0.4-0.2
		c0,0.1-0.2,0.1,0,0.1c2.9-0.2,5.5-0.5,8.1-0.6c0.8-0.2,3.4-0.5,3.3,0c3.2,0.1,6.3-0.4,9.7-0.4c1.1-0.3,2.5-0.4,3.6-0.3
		c-0.2,0,0.3-0.1,0.6-0.1c1.1,0.2-0.7,0.4-1.6,0.5c0.8-0.1,0,0.3-0.1,0.5c-1.7,0.2-3,0.3-4.4,0.5c-0.4,0-0.5-0.1-0.9-0.1
		c-0.6,0.2-1.3,0-2.1,0.1c-0.4,0.1-0.7,0.3-1.2,0.3c-0.5,0-1-0.1-1.4-0.1c-0.2,0-0.7,0.1-0.9,0.2c0,0,0.1-0.1,0.1-0.1
		c-0.4,0-0.6,0.2-1,0.2c-0.1,0-0.1-0.1-0.2-0.1c-0.6,0-1.2,0.3-1.8,0.3c-0.5-0.1,0.5-0.3-0.2-0.2c0,0.2-0.7,0.2-0.9,0.3
		c-0.5-0.2-1.7,0.1-1.5-0.1c-1,0.2-2.8,0.4-3.7,0.4c0.2,0,0.2,0.1,0.2,0.1c-1.1,0.1-1.5,0.1-2.1,0.2c0-0.1,0.1-0.1,0.1-0.1
		c-1.7,0.1-3.1,0.3-4.2,0.3c-0.1,0.1-0.2,0.2-0.4,0.2c-0.4-0.1-0.5,0-0.7,0.1c-0.3-0.1-0.2-0.3-0.6-0.2c0.5,0.1-0.6,0.2-0.9,0.3
		c0-0.1-0.4,0-0.3-0.2c-0.1-0.1,0.4-0.1,0.4-0.2c-1,0.1-1,0.2-1,0.5c0.4,0.1,1,0,1.4,0.1c0.2-0.3,1.9-0.2,2.2-0.1
		c-0.2,0-0.1,0.1-0.3,0.1c0-0.1,0-0.1-0.2-0.1c-0.8,0.4-1.8,0.2-3,0.3c0.4,0.2-0.3,0.2-0.3,0.4c1.2-0.1,2.4-0.2,3.4-0.2
		c-0.5-0.1,0.4-0.2,0.6-0.2c0.3,0.1,1.2,0.1,1.4,0.1c-0.2,0-0.2-0.1-0.2-0.1c0.7,0.2,1.6,0,2.4,0.1c-0.9,0-0.5,0.1-1.2,0.2
		c0.7,0,1,0.1,1.5-0.1l0,0.1c1.4-0.3,3.6,0,5.4-0.3c0,0.1,0,0.1,0.2,0.1c1.5-0.3,3.9-0.1,4.6-0.4c0.1,0.2-0.6,0.3-1,0.2
		c0.1,0.3,1,0,1.4,0c0,0,0,0.1,0,0.1c0.6-0.1,0.8-0.3,1.5-0.4c0.8-0.1,1.1,0.2,2.1,0c-0.3-0.2,1.1-0.1,1.5-0.2
		c-1.6,0.1,1.8-0.4,1.8,0c-0.5,0-0.6,0.1-0.9,0.2c0.8-0.1,0.4,0,0.6,0.2c0.7-0.1,0.8,0,1.2,0c-0.1-0.2-0.7-0.1-0.9-0.2
		c0.2,0,0.3,0,0.4-0.1c0.4,0,0.6,0.3,0.9,0c0,0.1,0.1,0.2,0.2,0.2c-2.4,0.3-3.3,0.4-5.5,0.4c-1.3,0.2-2.8,0-4.2,0.4
		c0-0.1-0.5,0-0.5-0.1c-1.8,0.3-3.9-0.1-5.4,0.4c0.4,0,1-0.1,1.1,0c-0.5,0-2.5,0.3-2.1-0.1c-0.4,0.1-0.7,0.1-1.2,0.1
		c-0.2,0.2,0.8,0,0.8,0.1c-0.7,0.1-2.2,0.3-2.7,0c-2.7,0.2-4.8,0.4-6.6,0.2c-0.1,0.3-0.3-0.1-0.6-0.1c-0.4,0.1,0.2,0.2-0.1,0.3
		c-0.1,0-0.2,0.1-0.3,0.1c-0.6,0.1-0.5-0.1-0.9-0.1c-0.2,0.1-0.9,0.1-1.5,0.2c-0.2-0.4-1.2-0.1-1.8,0c-2.5,0.1-5.7,0.1-7.7,0.3
		c1.5,0,2-0.1,3.3,0c1.8-0.3,4-0.2,6-0.3c0,0.1,0.3,0.1,0.3,0.2c-0.2,0.1-0.6,0.1-0.7,0.2c0.6,0.1,2.1-0.3,3.2-0.1
		c0.1-0.2,0.6-0.1,0.9-0.1c0.4-0.4,2.7-0.5,3.6-0.5c0,0.1-1.4,0.1-0.9,0.2c0.4,0,0.9-0.1,0.9,0.1c-0.3,0-0.9,0-0.9,0.1
		c0.5,0,1.5-0.1,1.2,0.2c0.6,0-0.2-0.2,0.4-0.2c0,0,0.1,0,0.3,0c0.2,0.2-0.2,0.3-0.4,0.4c0.7,0.1,0.7-0.1,0.7-0.2
		c0.5,0.1-0.4,0.2,0,0.3c0.6,0,1.3,0,1.7,0c-0.2,0-0.2,0-0.3-0.1c0.3,0,0.6-0.2,0.7,0c-0.2,0-0.4,0-0.4,0.1c0.9,0.1,2.2-0.1,2.7,0.1
		c0.4-0.1-0.3-0.1,0.1-0.2c0.8-0.1,0.8,0.1,1.4,0.1c0.1-0.1-0.2-0.2,0.1-0.3c0.5,0,1.4-0.2,1.4,0.1c-0.2,0-1.1,0.1-0.7,0.1
		c0.8-0.2,1.4-0.1,1.8-0.3c0.6,0-0.1,0.3,0.5,0.3c0.2,0,0-0.2,0.3-0.2c0.2,0.1,1.8,0.2,1.1,0c0.6,0,0.8,0,1.7-0.1
		c0-0.1-0.1-0.2,0.1-0.2c2.5,0,4.7-0.4,6.9-0.4c0-0.1-0.2-0.1,0-0.1c0.9,0,1.5,0,2.1-0.2c0,0.1-0.1,0.1-0.1,0.2c0.6-0.1,1.4-0.1,2,0
		c-0.4,0.2-1.2,0.1-1.3,0.4c1-0.1,1.4-0.5,2.6-0.5c0.2-0.1-0.4-0.2,0-0.2c0.5,0,0.6,0,0.9-0.1c0,0.2,0.5,0.2,0.8,0.2
		c1.2-0.3,2.4,0,3.4-0.4c2.4,0,5.9-0.3,7.8-0.6c0.2,0.1,0.8,0,0.8,0.2c0.8-0.2,1.3,0,1.9-0.2c-0.2,0-0.4,0-0.3-0.1
		c0.4-0.1,0.4-0.1,1-0.1c0,0.1,0,0.2,0.3,0.1c0.4-0.4,1.7-0.1,2.4-0.1c0-0.1-0.2-0.1-0.3-0.1c0.6-0.1,1.7-0.2,1.8,0.1
		c-0.4,0.1-0.6-0.2-0.8,0c0.2,0,0.2,0.1,0.3,0.1c1.6-0.4,3.9-0.5,4.9-0.5c0.4,0,0.6-0.2,0.7-0.2c0.5,0,0.9,0.2,1.7,0
		c-0.1,0,0.2,0,0.6,0c0.1,0,1.7-0.2,2.1-0.1c0.1,0.1-1.2,0.2-0.7,0.2c0.5-0.1,0.7-0.1,1.2-0.1c-0.2-0.2,0.8-0.3,1-0.2
		c-0.5,0.1-1.1,0.2-1.3,0.3c0.9-0.1,2.6-0.5,2.6,0c0-0.1,0.3-0.1,0.3,0c-0.6,0.2-0.3,0.3-0.8,0.4c1.9-0.6,3.5,0,5.2-0.7
		c0,0.1-0.2,0.1-0.1,0.2c0.5,0,0.4-0.2,1-0.2c0,0.1,0.2,0.1,0.2,0.2c0.4,0,0.8-0.1,1-0.2c-0.7,0.1-1,0-1.1-0.2c1,0,1.5-0.3,2.4-0.1
		c-0.6,0-0.4,0.2-1,0.2c0.2,0.1,0.1,0.3,0.6,0.3c0-0.1-0.1-0.2,0.1-0.2c-0.1,0.2,1.9,0.2,2.7,0.1c0.1-0.2-0.4-0.1-0.3-0.3
		c0.2,0,0.5,0,0.9,0c-0.3,0.1-0.2,0.1-0.1,0.3c0.5,0,0.2-0.2,0.6-0.2c0,0.2,0.8,0,0.9,0.2c0.6-0.2,0.8-0.1,0.8,0
		c0.5-0.2,0.8-0.1,1.2-0.3c0.3,0.1,0,0.1,0,0.2c0.6-0.1,0.6-0.1,1.1,0c0.2-0.1,0.3-0.2,0.6-0.2c0.3,0.1,0.6,0,0.2,0.1
		c1.7,0,2.1-0.6,2.9-0.6c0-0.4,0.7-0.3,1.3-0.2c0.2-0.1-0.4-0.2,0-0.2c0.4,0.1,0.8,0,1.4-0.1c0.2,0.1-0.2,0.2-0.3,0.3
		c0.3-0.1,0.8-0.1,0.9-0.1c-0.2,0-0.4,0-0.5-0.1c0.4,0,0.4-0.1,0.9-0.1l0,0.1c1.2-0.4,3-0.3,3.5-0.5c0.5-0.1,0.3,0.1,0.6,0.1
		c0-0.1-0.1-0.1-0.2-0.1c0.4-0.1,2.2,0.1,1.2-0.1c0.7,0,1,0.1,1.4,0c-0.4,0-0.4-0.1,0-0.1c-0.2,0.1-0.1,0.2,0.3,0.1
		c0.1-0.1,0.4-0.1,0.7-0.2c-0.4,0.2,0.7,0,0.9,0c-0.1,0-0.3,0-0.3,0c0.3,0,1.1-0.2,1.3-0.1c-0.1,0.1-0.6,0.1-0.6,0.1
		c0.5,0,0.7-0.1,1.2-0.2c0.3,0.3,1.4-0.3,1.7,0c-1.2-0.1-1.9,0.6-2.7,0.3c0,0.3-0.5,0.2-1.2,0.3c0.2,0.1-0.2,0.1-0.3,0.2
		c0.7,0,0.4-0.1,0.6-0.1c0.1,0,0.6,0,0.5,0.1c-0.2,0-0.4,0-0.4,0.1c0.6-0.1,0.9-0.1,1.1,0.1c0.8-0.2,1.3-0.1,3-0.3
		c0.3-0.1-0.2-0.1,0.3-0.2c2,0.1,3.7-0.5,5.2-0.5c0.3-0.2-0.3-0.3,0.4-0.3c0.4,0,0.3,0.1,0.2,0.3c1.3-0.3,2.3-0.1,3.7-0.3
		c0.5-0.5,2.7-0.2,3.5-0.6c-0.7,0.1-1.6,0.2-2,0.1c0.5-0.2,2.3-0.4,2.1-0.1c0.8-0.2,1.5,0.1,1.8-0.3c0.2,0.3,1.9,0.1,2.9,0
		c-0.1,0,0.2,0,0.6,0c2-0.2,4.4-0.3,6.2-0.7c0,0.1,0,0.2,0.3,0.1c0-0.1,0-0.3,0.4-0.3c0.1,0.1-0.4,0.2,0.2,0.1
		c0.1-0.1,0.4-0.2,0.7-0.1c0.3-0.1-0.2-0.1,0.1-0.2c0.3,0,0.5,0,0.6,0c0,0.1-0.4,0.1-0.3,0.2c0.5-0.2,0.7-0.1,1.3-0.3
		c0-0.2-0.5,0-0.6-0.1c3.1-0.9,7-1,10.3-1.4c0.2,0.1-0.9,0.2-0.4,0.2c1.4-0.3,1.7-0.4,2.8-0.3c0.5,0,0.5-0.2,0.8-0.3
		c0.5,0.1,2-0.4,2.7-0.1c0.1-0.2,0.7,0,1-0.2c0,0.2,0.3,0.1,0.5,0c0.1,0.3,0.8,0,1.1,0.2c0.2-0.2,0.6-0.2,1.2-0.2
		c0.3-0.1-0.2-0.1,0.1-0.2c0.8,0.1,1.8-0.3,2.3,0c0.4-0.3,2.4-0.4,2.8-0.2c0.1-0.3,1.7-0.4,1.8-0.3c0.5-0.2,1.1-0.4,1.7-0.5
		c-0.1,0.1-0.2,0.1-0.3,0.2c2.8-0.2,4.9-0.7,8.3-0.8c0-0.1,0.1-0.1,0.3-0.2c1.1,0.3,3.3-0.6,3.5,0c0.8-0.1,0-0.2,0.5-0.3
		c1.7-0.1,2.9-0.4,3.9-0.3c0.9-0.2,1.3-0.2,2.5-0.4c0.1,0.1-0.4,0.1-0.4,0.2c1.4-0.2,2.1-0.4,3.3-0.2c-0.1-0.2,0.8-0.2,0.8-0.4
		c-0.8,0.1-1.8,0.1-2.3-0.1c0.6-0.2,1,0.1,1.2-0.1c-1.5-0.2-2.3,0.3-4,0.4c0-0.1,0-0.1,0.1-0.2c-0.6,0-1.2,0.1-1.8,0.3
		c-2.9-0.1-6.2,0.8-9,0.7c-0.8,0.3-2.4,0.4-3.8,0.6c0.2-0.3,1.7-0.2,1.9-0.5c-0.7,0.1-3.7,0.5-3.3,0.1c0,0.1,0.1,0.3-0.2,0.3
		c-0.4,0.1-0.3-0.1-0.6,0c-0.2,0.3-2.7,0.4-3.6,0.4c0.1,0,0.2,0,0.2,0.1c-0.3-0.1-1.2,0.3-1.8,0.2c0.3,0,0.6-0.1,0.6-0.2
		c-0.6-0.1-0.5,0.2-1.2,0.3c-0.1-0.1,0.4-0.1,0.4-0.2c-1.2,0.2-3.5,0.3-4.6,0.5c-0.2,0.2,0.5,0,0.3,0.2c-0.2,0-0.8,0.1-0.8,0
		c0-0.1,0.2-0.1,0.3-0.2c-2.3,0.2-4.5,0.5-7.3,0.7c-0.4-0.2-2.2,0.2-3,0.3c-1.1,0-2.8,0.3-4.3,0.5c-2.4,0.3-4.9,0.3-6.8,0.7
		c0-0.1,0-0.2-0.3-0.1c0,0.1,0.1,0.2-0.1,0.2c-0.7,0-1.2,0-1.5-0.2c-0.1,0.1-0.3,0.2-0.6,0.3c0.3,0,0.7-0.2,0.9-0.1
		c-0.3,0-0.2,0.2-0.7,0.2c-0.7-0.3-0.3-0.1-1.2-0.1c0.3,0,0.4-0.1,0.4-0.1c-0.7,0.2-1.7,0-2.4,0.3c0.8,0,1-0.1,1.7,0
		c-0.8,0.1-1,0.1-1.6,0.2c-0.2-0.1,0.4-0.2,0-0.2c-0.7,0.3-1.9-0.2-2.8,0.1c0.3-0.1,0.8,0,0.5,0.1c-0.4,0-0.5,0-0.8,0
		c-0.5,0.4-1.7,0.2-2.3,0.4c-0.4,0-0.4-0.1-0.5-0.2c-0.2,0.2-1.6,0.4-1.9,0.4c-0.1-0.1,0.7-0.1,0.7-0.2c-1.5,0.2-2,0.4-2.6,0.5
		c-0.3,0-0.2-0.1-0.5-0.1c0.3,0.2-0.8,0.3-1.6,0.4c0-0.2,0-0.3,0.1-0.3c0.2,0,0.7,0,0.9-0.1c-0.4-0.1,0.4-0.2,0.4-0.3
		c0.3,0,0.3,0.1,0.2,0.1c1.1-0.2,2.5-0.2,3.6-0.4c0,0.1-0.2,0.1,0,0.1c-0.3-0.2,0.5-0.1,0.4-0.2c-0.4-0.1,0.3-0.2,0.6-0.3
		c-0.2,0.1-0.1,0.1,0.2,0.1c0.3-0.3,1.1-0.1,1.5-0.3c0.4,0-0.3,0.2,0.3,0.1l0-0.2c0.5-0.1,2.1-0.2,2.5-0.3c0.4,0-0.5-0.2,0.3-0.2
		c-0.1,0.2,1.6-0.2,1.8,0.1c1.4-0.3,2-0.1,3.1-0.4c0.1,0.1,0.9,0.1,1.1,0c-0.2,0.1-0.7,0-0.3-0.1c2.2,0,5.1-0.4,7.5-0.4
		c-0.2,0-0.2,0-0.3-0.1l0.6-0.1c0,0.1,0,0.1-0.1,0.2c0.5-0.2,1.3,0.1,1.7,0c-0.4,0,0.2-0.1,0.3,0c0.1-0.1,0-0.1,0.4-0.2
		c-0.2,0-0.5,0.1-0.6,0c1.2-0.3,3.1-0.2,4.5-0.3c0.5-0.1-0.5-0.1,0-0.2c0.5,0.1,1.1-0.3,1.3-0.1c-0.1,0.1-1.5,0.2-0.8,0.4
		c0.7-0.2,1.1-0.6,2-0.4c-0.2-0.5,1.8-0.4,2.4-0.7c0.4,0.1,1.4,0.1,2-0.1c-1.1,0-2,0-2.5-0.2c0.2,0,0.4,0,0.4-0.1
		c-0.9,0-0.5,0.3-1.3,0.3c0,0.2,0.9,0,0.9,0.2c-1.2,0.1-2.3,0.3-3.1,0.2c0.5,0,0.2-0.2,0.6-0.2c0.1,0,0.9,0.1,0.9,0
		c0.2-0.3,1.8-0.6,2.8-0.5c0.4-0.3,1.3-0.1,1.5-0.1c-0.4,0,0.1-0.2,0.3-0.2c0,0.2,1.5,0,0.7-0.1c0.6-0.1,0.8,0.1,0.8,0.1
		c0.5-0.1,0.9-0.3,1.3-0.5c0,0.1-0.3,0.2,0.2,0.2c0.3-0.1,0.1-0.1,0.3-0.2c0.1,0,0.2,0,0.2,0.1c0.5-0.4,1.8,0,2.1-0.2
		c-0.2,0-0.4,0-0.3-0.1c0.7,0,1.4-0.1,1.7,0c0.2-0.2,0.5,0,1,0c0.1-0.3,2.7-0.6,2.5-0.3c0.5-0.2,0.8-0.3,1.5-0.2
		c0.1-0.3-1,0-1.2-0.1c0.4-0.2,1.6-0.1,2.1-0.3c0.4,0.1,0.7,0.2,0.7,0.3c0.4-0.1,0.4-0.2,0.7-0.3c-0.2,0-0.4,0-0.5,0
		c0.5-0.2,1.7-0.3,1.7,0c-0.4,0-0.4,0.3-0.3,0.2c0.2-0.2,1.2-0.3,1.4-0.5c-0.7,0-0.4,0.2-1,0.2c-0.2-0.1,0.1-0.2-0.4-0.3
		c0.9-0.1,1.3-0.1,1.9-0.2c0,0.1-0.4,0.1-0.3,0.2c0.6,0,0.3-0.2,0.6-0.3c0.3,0,0.7,0,0.8,0.1c1.2-0.4,2.1-0.3,3.8-0.5
		c0.2-0.2-0.9,0.1-0.9-0.1c1.6-0.4,3.3-0.5,5-0.9c0,0.1-0.2,0.1-0.3,0.2c0.9-0.3,1.6-0.1,1.7-0.4c2.2,0,7-0.6,9-0.5
		c1.1-0.1,2.6-0.6,3.4-0.3c0.5-0.3,2-0.2,2.5-0.4c-0.2,0,0-0.1,0.1-0.1c2.4,0,3.5-0.6,6.2-0.7c-0.1-0.2-1.9,0.3-1.7-0.1
		c-1.5,0.1-1.9,0-3.3,0.1c0.2,0,0.4,0,0.4-0.1c-0.1,0-0.3,0-0.3,0c0.7,0,1.1-0.1,1.3-0.3c-1.1,0.1-2.4,0.3-3.4,0.2
		c0.2-0.2,2.2-0.2,2.4-0.3c-0.9,0-1.8,0-2.9,0c0.4-0.2-0.4,0-0.3-0.2c0.6-0.2,1-0.1,1.5-0.2c-0.2,0-0.5-0.1-0.2-0.1
		c0.5,0,0.5,0,1-0.1c0,0.1-0.6,0.2-0.1,0.2c0.6-0.2,1.6-0.5,2.1-0.3c0-0.1-0.2-0.1-0.2-0.2c0.4,0,0.7-0.1,0.9-0.1l0,0.1
		c0.9-0.2,1.3-0.3,1.7-0.5c0.5,0,2.3-0.1,2.5-0.3c-0.8,0-1.8,0.4-2.4,0.1c-2,0.2-4.4,0.3-5.6,0.5c-0.8,0.1-2,0.1-2.7,0.2
		c-0.7,0.1-1.8,0.3-2.2,0.1c0.5,0.1,1-0.2,1.5-0.1c0.3-0.1-0.2-0.1,0.1-0.2c7.4-0.4,15.2-2.2,23.3-2.8c-0.1-0.4,2.2-0.5,2.9-0.4
		c0.3-0.3,1.3-0.1,1.4-0.3c-0.4-0.1-1.4,0.1-1.5,0c0.1-0.1-0.2-0.3,0.1-0.3c1.8-0.3,2.9,0,3.7-0.3c-0.9,0.1-1.7-0.2-3.2,0
		c0.2,0,0.1-0.4-0.1-0.2c0.2,0.3-0.7,0.1-1,0.3c-0.5,0-0.7-0.1-0.8-0.2c0.4-0.3,1.6-0.3,2.2-0.6c-0.1-0.2-0.6-0.2-1.1-0.1
		c-2.3-0.2-6.1,0.7-8.6,0.8c-0.3,0-0.2-0.1-0.6,0c-1.3,0.2-3.4,0.7-4.8,0.4c-0.9,0.2-1.7,0.2-2.7,0.3c0,0.1-0.3,0.2-0.9,0.2
		c0.2-0.1,0-0.1,0-0.2c0.4-0.1,0.8-0.1,1-0.2c-0.2-0.1-0.8,0.1-0.6-0.1c1-0.1,1.3-0.3,2.2-0.5c-0.3,0-0.3-0.1-0.8,0
		c-0.6,0.3-2.1,0.5-2.4,0.9c-0.3,0-0.6-0.2-0.4-0.3c-1.2-0.1-2.9,0.3-4,0.2c0-0.2,0.5-0.2,0.7-0.4c-1.1,0.1,0.1-0.1,0.1-0.3
		c-0.8,0.2-2.2,0.3-3.2,0.5c-7.5,0.1-16,1.5-23.2,1.9c-2.1,0.3-4.3,0.5-5.7,0.7c-0.8,0.3-2.6,0.6-3.4,0.5c-0.5,0.2-2.7,0.4-3.4,0.5
		c0.9-0.1-0.1-0.1-0.2-0.1c1.2-0.1,2.1-0.1,2.3-0.4c0.2,0,0.3,0,0.5,0.1c-0.1,0-0.3,0-0.3,0.1c1,0-0.3-0.3,0.5-0.4
		c0.2,0.3,1-0.1,0.9,0.2c-0.5,0.1-0.6-0.1-0.7,0.1c1.3-0.1,2.6-0.3,3.2-0.4c-0.5-0.1-1.5,0.2-2.2,0.2c-0.2-0.1-0.2-0.2-0.3-0.2
		c-0.8-0.1-1.5,0.2-2,0c2-0.3,1.6,0,3-0.1c-0.1,0-0.2,0,0,0c0.9-0.1,1.4-0.1,2.2-0.2c0.3,0,1.4,0.3,1.3-0.1c-0.6,0.1-1.3,0.2-1.5,0
		c-1.3,0-2,0.5-2.8,0.4c0.6-0.1,1.1-0.2,1.3-0.4c-0.6,0-0.4,0.2-1.2,0.3c0-0.1,0.2-0.1,0.3-0.2c-0.7,0.2-1.9,0.4-2.2,0.2
		c1.2-0.2,2.3-0.3,3.2-0.5c0,0.1,0.1,0.2,0.2,0.1c0,0,0-0.1,0-0.1c-1.4-0.1-1.9,0.4-2.8,0.1c0.7,0,1.2-0.2,1.8-0.2
		c0.2-0.3,1.7-0.5,2.5-0.5c-2.1-0.2-3.6,0.6-5.4,0.8c-0.2-0.2,1-0.3,0.4-0.4c-2,0.5-4.8,0.3-6.7,0.5c1.7-0.3,3.3-0.5,4.7-0.6
		c0.5,0-0.4-0.1,0.1-0.2c1.2,0.1,3.6-0.3,5.5-0.6c0,0.1-0.2,0.1,0,0.1c0.8-0.4,2.6-0.3,3.5-0.5c-0.1,0-0.3,0-0.3,0
		c2.2-0.1,5.2-0.4,7.2-0.8l0,0.2c2.3-0.4,5.6-0.9,8.3-0.9c0-0.1,0.1-0.2,0.4-0.2c6.5-0.5,13.8-1.7,19.8-2.1c-0.2,0-0.5,0.1-0.5-0.1
		c2.8,0,5.2-0.3,7.7-0.6c0.3,0,0.5,0.2,0.8,0.2c0-0.2-0.2-0.1-0.4-0.3c1.2,0.1,2.8-0.1,4-0.3l0,0.1c0.9-0.3,2.1-0.5,2.9-0.4
		c-0.2,0-0.2-0.1-0.2-0.1c0.8-0.1,1.4-0.2,1.5,0c0.4-0.1,0.9-0.1,1.2,0c0.6-0.1-0.1-0.2,0.2-0.3c5.7-0.3,13.4-1.2,19.5-1.9
		c-5.1,0.5-10.2,0.9-15.4,1.5c0-0.1-1,0.2-0.8-0.1c-2.8,0.5-6.6,0.4-9.3,0.9c0-0.1,0-0.1-0.2-0.1c0.2,0.2-0.3,0.2-0.5,0.3
		c-0.4-0.2-1.4,0.1-2.1,0c-0.2,0.2-2,0.2-2.4,0.2c-0.1,0.1-0.1,0.2-0.4,0.2c-0.1-0.2-0.7,0.1-1.1,0c-0.4,0.3-1.2,0.2-1.9,0.3
		c-0.2-0.3-1,0-1.8,0c-0.3,0.1,0.2,0.1-0.1,0.2c-3.8,0.2-7.4,0.7-11.6,0.9c0.1,0,0.3,0,0.3-0.1c-0.5,0-0.3,0.2-0.7,0.2
		c0-0.1-0.3-0.1,0-0.2c-0.7,0.2-1.6,0.1-2.4,0.2c-0.1,0.2,0.3,0.1,0.3,0.2c-0.4,0-0.3,0.1-0.7,0.1c0-0.1,0.4-0.1,0.3-0.2
		c-0.7,0-0.5,0.2-1.2,0.2c0-0.2-0.8,0-1.2-0.1c-0.3,0.2-0.3,0.2-0.2,0.3c-0.4,0-0.7,0-0.9,0.1l0-0.1c-0.3,0.1-1.4,0.4-1.6,0.2
		c0.7,0,1.2-0.3,2.1-0.2c-0.1-0.4-2.9,0.4-3.5,0c3.3-0.4,5.8-0.5,9.2-0.8c0-0.1-0.2-0.1,0-0.1c0.3,0,0.9-0.1,0.9,0
		c-0.1,0.1-0.6-0.1-0.6,0.2c0.7,0,2.1-0.2,2.5-0.3c-0.3,0-1,0-0.5-0.2c2.7,0,5.8-0.5,8.2-0.7c3.4-0.3,6.8-0.5,10.6-0.8l0,0.1
		c1.3-0.4,2.6-0.2,3.7-0.5c0.4,0,0.8,0,0.9,0.2c0.3-0.1,0.9,0,0.9-0.1c-0.6,0.1-1,0-1.1-0.1c0.8-0.1,3-0.3,4-0.3
		c1.3-0.3,3.5-0.4,4.7-0.7c-0.9-0.1-2.8,0.5-3,0c1,0,1.6-0.4,2.7-0.3c-0.1-0.2,0.3-0.2,0.9-0.2c0.6-0.5,2.9-0.3,4.1-0.7
		c0.4,0.1,0.9,0.1,1.4,0.1c0.1-0.2-0.5,0-0.2-0.2c-0.3,0-0.9,0.1-0.9,0c3.2-0.4,5.5-0.8,8.2-1.1c-0.1-0.5,1.6-0.3,2-0.4
		c-0.7-0.2,1.2-0.2,1.8-0.2c1.3-0.2,2.8-0.4,3.5-0.6c-0.7-0.2-1.5,0.2-2.4,0.2c0-0.1,0.1-0.2,0.4-0.3c0.1,0.1,1-0.1,0.9-0.2
		c-0.8,0.1-1.2,0.1-1.9,0.1c0.8-0.2,1.9-0.6,2.9-0.4c0.6-0.3,1.7-0.3,2.9-0.5c-0.3-0.2,1.1-0.3,2-0.4c0.7-0.3,0-0.3,1.1-0.5
		c-0.4-0.1-0.7,0.1-0.9,0c0.2-0.3,0.5-0.5,1.5-0.6c0,0.1-0.2,0.1-0.3,0.2c0.8-0.1,1.6-0.3,1.7-0.4c0.7,0.1,0.5-0.1,1-0.2
		c0.8-0.1,2-0.1,2.3-0.4c-0.6-0.1-1.3,0.2-1.5,0c0.5-0.2,1,0,1-0.2c-0.5-0.1-1.9,0.3-2,0l0.9-0.1c0-0.2-0.8-0.1-0.4-0.3
		c-0.2,0-0.8,0-0.7,0.1c0.3,0,0.5,0,0.5,0.1c-0.4,0-1.2,0.1-1.8,0.1c1-0.4,3.4-0.6,4.7-0.7c0.1-0.1,0.1-0.2,0.4-0.3
		c-0.7,0.1-1.4,0.1-0.6,0.2c-0.6,0.1-0.7,0-0.9-0.1c1-0.3,0.8,0,1.8-0.2C314.6,8.8,314.4,8.7,314.8,8.6z M241.5,33.4
		c-0.1,0.2-0.5,0.1-0.7,0.1C240.8,33.4,241.4,33.4,241.5,33.4z M218.2,35.9c-0.2,0-0.8,0.2-1.3,0.3c0.1,0,0.1-0.1,0.1-0.2
		c0.4,0,0.8-0.1,0.9-0.2C218.1,35.8,218,35.9,218.2,35.9z M161.1,42.3c0-0.1-0.1-0.1-0.3-0.1c0-0.1,0.4-0.1,0.7-0.2
		c-0.2,0.1,0.1,0.1-0.1,0.2c0.3,0,0.9-0.1,0.8,0C162,42.2,161.5,42.3,161.1,42.3z M71.4,41.5c0,0.1-0.3-0.1-0.6,0l0-0.1
		C71.1,41.4,71.2,41.4,71.4,41.5C71.3,41.5,71.2,41.5,71.4,41.5z M55.4,23.3c-0.7-0.1-1.6,0.3-1.8,0.1C54,23.2,55.2,23,55.4,23.3z
		 M197.5,15.9c-0.7,0.1-1.4,0.2-2.4,0.2C195.8,15.9,196.7,15.9,197.5,15.9z M313.3,9c0,0.1-0.4,0.1-0.3,0.2c-0.5,0.1-0.5,0-1,0.1
		c0-0.1,0.3-0.1,0.4-0.1c0-0.1-0.1-0.1-0.2-0.1C312.3,9,313.1,9,313.3,9z M307.3,11.3c-0.1,0.1-0.5,0.2-1,0.2c0-0.1,0.5-0.2,0.8-0.3
		C307.1,11.3,307.2,11.3,307.3,11.3z M299.9,13.6c-0.1,0.1-1.4,0.4-1.3,0.1C299.2,13.7,299.2,13.7,299.9,13.6z M282,10.4
		c0.6,0-1.2,0.3-1,0.1C281.2,10.5,281.8,10.5,282,10.4z M278.1,10.5c0.1,0.1-0.7,0.2-0.3,0.2c-0.1,0.1-1.4,0.3-1.3,0.1
		C277.3,10.8,277.6,10.6,278.1,10.5z M251.7,29.6c0,0.2-0.9,0.2-1.2,0.2C250.7,29.5,251.4,29.6,251.7,29.6z M243.8,21.3
		c0.1,0.2-0.6,0.1-0.9,0.1C242.9,21.2,243.6,21.2,243.8,21.3z M226.5,23c-0.2-0.2,0.8-0.1,0.9-0.2c-0.1-0.1-0.4,0.1-0.7,0
		c-1.4,0.6-4.3,0.6-6.5,0.8c-1.8,0.2-3.3,0.6-4.6,0.6c-0.1,0-0.4,0-0.3-0.1c-0.5,0.2-1.1,0.1-1.8,0.2c-0.2-0.1,0.1-0.1-0.6,0
		c0.3-0.1,0-0.1,0-0.2c0.4-0.1,0.3,0.1,0.5,0.1c0.2-0.1,0.5-0.2,0.5-0.3c0.3,0,0.4,0.1,0.6,0.1c0.3,0,0.3-0.2,0.6-0.2
		c-0.3-0.1-1.4,0.1-1.8-0.1c0.7-0.1,0.9,0,1.6,0c-0.4,0-0.9,0-1.4,0c-1.2,0.3-1,0.7-2.4,0.9c0.1,0.1,0.6,0.1,0.9,0.1
		c-1.1,0.3-2.2,0.1-2.9,0.5c-0.2,0-0.6,0-0.6-0.1c-0.4,0.1-1.3,0.4-1.5,0.2c-0.3,0-0.1,0.2-0.4,0.2c-1-0.2-3,0.4-4,0.3
		c-0.7,0.3-2.5,0.4-3.1,0.4c-0.7,0.4-3.5,0.5-4.6,0.4c-1.1,0.1-1,0.2-2.1,0.3c0.3,0,1,0.1,1.1,0c0,0.2-0.7,0.2-1.8,0.3
		c0,0,0.1-0.1,0.3-0.1c-1.5,0-4.4,0.9-6.3,0.4c0.6,0,1.1-0.1,1.5-0.2c-0.3,0.1-2,0-2.2,0.3c-0.5,0.1-0.6,0-0.8-0.1
		c0-0.1,0.1-0.2,0.6-0.2c0-0.1-0.7,0.1-0.5-0.1c1-0.1,1.5,0,2.5-0.1c-0.4-0.1-1-0.1-2,0c2.1-0.4,3.5-0.6,5.9-0.7
		c-0.1-0.2-0.9-0.1-1.1-0.3c1.6,0,2.6-0.4,3.7-0.4l0,0.1c0.1,0.1-0.2,0.1-0.4,0.1c0.3,0.1,0.8-0.1,0.6-0.2c0.5,0,0.7-0.1,1.3-0.2
		c0,0.1-0.4,0.1-0.7,0.2c0.5,0.2,1.5-0.2,2.2-0.3c0.5-0.1,0.1,0.2,0.5,0.1c0.6-0.1,3.7-0.5,4.5-0.3c0.4-0.1,0.4-0.1,0.3-0.3
		c0.5-0.1,0.8-0.1,0.9,0.1c0.5-0.3,1.5-0.2,2.2-0.2c0.5-0.1-0.3-0.1,0.1-0.2c0.4,0,0.2,0,0.2,0.1c0.6,0,0.4-0.3,1.2-0.3
		c-0.1,0.1-0.1,0.3-0.1,0.5c0.3,0,0-0.2,0.1-0.3c0.6-0.1,0.6,0.1,1.1,0.1c-0.3-0.2,0.7-0.6,1.1-0.3c-0.5,0.1-0.6,0-0.9,0
		c0,0.1,0.3,0.1,0,0.2c0.7-0.2,0.8-0.1,1.5-0.1c0-0.1,0.4-0.3-0.1-0.4c0.5,0,1.1,0,1.5,0.1c0,0.1-0.5,0.1-0.9,0.2
		c-0.3,0,0.3,0.2,0.3,0.2c0.3-0.1-0.2-0.1,0.1-0.2c0.3,0,0.6,0,1,0c0.3,0.1,0,0.1,0,0.2c0.9-0.2,0.4-0.5,1.4-0.6
		c-0.1-0.1-0.2-0.1-0.5-0.1c1.6-0.6,4.1-0.2,5.3-0.6c0.5,0.1,0.2,0.1,0.8,0c0.3,0.2-0.3,0.4-0.8,0.5c-0.1-0.1,0.1-0.1,0.1-0.2
		c-0.7,0-1.9-0.1-2.8,0.3c1.3-0.1,2.2,0,3.3-0.1c-0.1,0.2,0,0.1,0.2,0.2c0.5-0.1-0.4-0.2,0.1-0.4c0.2,0.1,1.2-0.2,1.9-0.1
		c0.2,0,0-0.1-0.2-0.1c0.2-0.1,0.6,0.1,1.1,0c-0.1,0-0.3-0.1-0.5-0.1c0.1-0.2,0.3,0,0.6-0.1c0,0-0.2,0-0.3,0c0-0.1,0.7-0.1,0.9-0.2
		c0.2,0.1,0.8,0.2,1,0c2,0,4.1-0.1,6.1-0.3l0,0.1c1.4-0.3,2.7-0.3,4.1-0.5c-1,0.5-2.8,0.4-4.4,0.6C228.1,22.8,227.4,23,226.5,23z
		 M237.8,21.7c-0.9,0.5-3,0.3-4.4,0.6C234.3,21.8,236.7,21.8,237.8,21.7z M228.3,14.3c-0.4,0.3-1,0.2-1.9,0.3
		C226.7,14.5,227.6,14.3,228.3,14.3z M213.8,24.3c0.1,0.1-0.2,0.2-0.6,0.2l0-0.1L213.8,24.3z M210.8,14.3c-0.3,0.2-1.1,0.1-1.5,0.1
		C209.6,14.3,210.5,14.3,210.8,14.3z M212,23.8c-0.4,0-0.4-0.2-0.2-0.3C212.4,23.5,212,23.7,212,23.8z M211.6,23.8
		c0,0.1-0.3,0.1-0.4,0.1c0.1-0.2-0.2-0.1-0.2-0.2C211.3,23.6,211.3,23.8,211.6,23.8z M209.8,15.3c-0.1,0.1-1,0.3-0.9,0
		C209.4,15.2,209.5,15.3,209.8,15.3z M205.1,15.1c-0.3,0-0.8,0-1,0.1C203.7,15.2,205.2,14.8,205.1,15.1z M206.8,25.9
		c0,0.2-0.7,0.1-1,0.1C205.9,25.8,206.4,26,206.8,25.9z M204.5,14.7c0.1,0.2-1.2,0.1-1.3,0.3c-0.5,0,0.2-0.2-0.2-0.2
		C203.3,14.8,203.9,14.8,204.5,14.7z M205.6,35.4c0,0.1-0.4,0.1-0.4,0.2c-0.2,0-0.2-0.1-0.6,0C204.6,35.5,205.2,35.5,205.6,35.4z
		 M204.1,35.5c-0.6,0.1-1.2,0.2-1.9,0.2C202.4,35.5,203.6,35.5,204.1,35.5z M203.9,36.7c-0.4-0.1-0.8,0.1-1.1,0
		C202.7,36.6,204.1,36.5,203.9,36.7z M203.5,35.7c-0.1,0.1-0.5,0.3-0.9,0.2C202.9,35.8,203.2,35.6,203.5,35.7z M201.1,35.8
		c-0.3,0.1-0.7,0.2-1.2,0.2c0-0.1,0.5-0.1,0.7-0.1c0-0.1-0.5,0-0.8,0C200.3,35.8,200.6,35.8,201.1,35.8z M196.3,36.6
		c-0.1,0.3-1.2,0.1-1.5,0.2C195.1,36.6,195.6,36.7,196.3,36.6z M195.6,36.4c-0.1,0.1-1.1,0.2-1.3,0.1c-0.1-0.1,0.7,0,0.4-0.2
		C195,36.4,195.3,36.4,195.6,36.4z M193.5,26.9c-1.2,0.3-1.8,0.4-3.1,0.6c0-0.1,0.7-0.1,0.4-0.2C191.9,27.2,192.5,27,193.5,26.9z
		 M194.6,36.7c-0.3,0.1-1.5,0.4-1.9,0.2C193.2,36.9,194,36.7,194.6,36.7z M193.8,36.4c0,0.1-0.5,0.3-0.7,0.2
		C193.2,36.5,193.3,36.4,193.8,36.4z M193.1,36.6c-0.5,0.1-1.5,0.1-2.2,0.2c0.3-0.3,1.5-0.1,1.4-0.4c0.3,0,0.4,0,0.6,0
		C192.7,36.6,192.4,36.7,193.1,36.6z M186.2,16.7c0.2,0.2-0.4,0.1-0.7,0.2C185.3,16.7,186,16.6,186.2,16.7z M189.4,36.9
		c-1.1,0.2-2.7,0.3-4.4,0.5c0.2,0.2,0.7-0.1,1.1,0c0,0.2-0.8,0.2-1.3,0.2c-0.3-0.2,0.2-0.3-0.1-0.4
		C186.4,37.1,187.6,36.8,189.4,36.9z M184.6,27c0,0.2-0.9,0.3-1.6,0.3C183,27.1,184,27,184.6,27z M182.7,27.6c0,0.2-2.3,0.2-0.6,0.1
		C182.3,27.6,182.5,27.6,182.7,27.6z M182.7,37.7c0.2,0.2-0.7,0.1-1,0.2C181.9,37.7,182.1,37.8,182.7,37.7z M181.5,37.7
		c0,0.1-0.4,0.2-0.7,0.3c0.1-0.1,0.1-0.1,0.1-0.2L181.5,37.7z M178,38.5c0,0-0.5,0.2-0.6,0.1c-0.1,0-0.1,0.1-0.1,0.1
		c-0.4,0-0.2-0.1-0.2-0.2C177.6,38.5,177.6,38.6,178,38.5z M176.5,38.6C176.4,38.6,176.3,38.7,176.5,38.6c0.1,0.2-0.5,0.2-0.7,0.2
		C175.9,38.7,176,38.6,176.5,38.6z M173,39.3c-0.1,0.2-0.6,0-1,0.2C171.8,39.3,172.7,39.4,173,39.3z M172.9,41c-0.6,0-1.2,0-1.1-0.3
		C172.1,40.9,172.7,40.8,172.9,41z M172.3,39.6c-0.2,0.1-1,0.2-0.1,0.2c-0.2,0.2-0.9,0.1-1.5,0.2C171.2,39.8,171.5,39.8,172.3,39.6z
		 M167.8,18c-0.2,0.1,0.1,0.1-0.1,0.2c-1,0-1.2,0-2.1,0.1C165.9,18.1,167.1,18.1,167.8,18z M171.5,40.8c0.2,0.2-1.2,0.3-1,0.1
		C171,40.9,171.1,40.7,171.5,40.8z M171,39.6c0,0.2-1,0.2-1.2,0.1C170.1,39.7,170.3,39.8,171,39.6z M165.3,18.2
		c0.2,0.2-0.8,0.2-0.9,0.1C164.6,18.3,165.1,18.2,165.3,18.2z M168.6,40.3c0.1,0.1-0.5,0.2-0.7,0.2C168,40.4,168.3,40.4,168.6,40.3z
		 M165.7,41c-1,0-1.8,0.3-2.5,0.3c-0.1-0.1,0.2-0.2,0.1-0.3c0.2,0.1,1-0.1,0.9,0.1C164.4,40.9,165.2,41,165.7,41z M165.4,40.9
		c-0.3-0.1-0.2-0.3,0.4-0.3c-0.4,0.3,0.7-0.1,0.8,0.2C166,40.9,166.1,40.9,165.4,40.9z M163.9,42c-0.4,0.2-0.6,0.1-1,0.1
		C163.3,41.9,163.5,42,163.9,42z M150.7,18.8c0.1,0.1-0.1,0.1-0.1,0.2c-0.5,0-0.6,0-1.2,0C149.5,18.8,150.4,18.7,150.7,18.8z
		 M153,41.9c-0.3,0.2-0.9,0-1.2,0.3c-0.8,0-1.1-0.1-1.6,0.1l0-0.2C151,42.1,152.1,41.9,153,41.9z M148.2,19c-0.5,0-0.7,0.1-1.2,0
		C147.1,18.9,148.3,18.8,148.2,19z M150.1,42.2c-0.4,0.3-1.7,0.4-2.2,0.2c-0.5,0.3-1.1,0.5-2.2,0.4c0.4-0.2,1.4-0.1,1.6-0.5
		C148.5,42.3,149.5,42.2,150.1,42.2z M149.7,41.6c0,0.1-0.8,0.2-1,0.1c0.1-0.1,0.4-0.2,0.9-0.3C149.5,41.6,149.5,41.6,149.7,41.6z
		 M148.3,41.6c-0.1,0.2-0.6,0-1.2,0.1c0-0.1-0.2-0.1-0.2-0.2C147.4,41.6,147.9,41.6,148.3,41.6z M143.2,18.3c-0.3,0.1-0.7,0.1-1,0.1
		C142.3,18.2,142.6,18.3,143.2,18.3z M147,43.1c0,0.1-0.6,0.1-0.9,0.1c0.3-0.1-0.1-0.1-0.5-0.1C145.8,43,146.6,43.1,147,43.1z
		 M146.2,42.4l0,0.1l-0.7,0.1C145.4,42.5,145.9,42.5,146.2,42.4z M141.8,18.3c-0.1,0.1-0.4,0.1-0.9,0.2
		C141,18.3,141.5,18.2,141.8,18.3z M141.5,19c0,0.1-0.6,0-0.7,0C140.9,18.8,141.3,19,141.5,19z M140.3,19.3c0,0.1-0.5,0.1-0.9,0.2
		C139.4,19.3,140.1,19.3,140.3,19.3z M138.8,19.3C139,19.3,138.9,19.3,138.8,19.3c0,0.2,0.6,0,0.5,0.2c-0.4,0-0.3,0.1-0.7,0.1
		c-0.1,0-0.1-0.1-0.3-0.1C138.3,19.4,138.8,19.4,138.8,19.3z M141.8,43.6c0-0.1-0.3,0-0.5,0c-0.2-0.1,0.4-0.2,0-0.2
		c0.1-0.1,0.6,0.1,0.8,0.2c-0.5,0.1-0.3,0.2-0.9,0.1C141.3,43.6,141.6,43.6,141.8,43.6z M137.5,18.3c0.1,0.2-0.8,0.3-0.7,0.1
		C136.9,18.3,137.3,18.3,137.5,18.3z M137.5,19.4c0.1,0.1-0.4,0.2-0.4,0.3c-0.2,0-0.3-0.1-0.3-0.2C136.9,19.4,137.2,19.4,137.5,19.4
		z M139.2,43.4c-0.1,0-0.1,0.1-0.1,0.2c-0.2,0-0.4-0.1-0.2-0.1c-0.1,0-0.3,0-0.3-0.1c0.1,0,0.3,0,0.3,0
		C139.1,43.3,139,43.4,139.2,43.4z M138.2,43.7c-0.1-0.2-0.2-0.2,0.1-0.4C138.5,43.4,138.8,43.6,138.2,43.7z M133.6,19.1
		c0,0.1,0,0.1,0.2,0.1c-0.3,0.1-0.3-0.1-0.9,0.1c0-0.1-0.1-0.1-0.3-0.1C132.8,19,133.1,19.3,133.6,19.1z M135.4,42.2
		c-1.1,0.3-3.8,0.4-4.9,0.6C130.9,42.5,133.9,42.4,135.4,42.2z M133.8,42.7l0,0.1c-0.4,0-0.7,0.1-0.9,0
		C132.9,42.7,133.4,42.7,133.8,42.7z M132.8,42.9l0,0.1c-0.3,0-0.6,0-0.6-0.1L132.8,42.9z M132.2,43.8c0,0.1-0.1,0-0.1,0
		c-0.5,0.3-0.1-0.1-0.6-0.1c0-0.1,0.4-0.1,0.6-0.1C132,43.7,132,43.8,132.2,43.8z M129.2,42.9c0,0.2-0.8,0.2-1.2,0.2
		C128.2,42.9,128.7,43.1,129.2,42.9z M119.7,18.3c-0.2,0.1-0.7,0.2-1,0.1C118.7,18.3,119.4,18.4,119.7,18.3z M108.6,43.6
		c-1.3-0.3-0.5-0.5,1.3-0.6c-0.1-0.1-0.5,0-0.8,0c-0.1-0.2,0.7-0.1,0.7-0.2c0.2,0,0.1,0.1,0.2,0.2c1.4-0.2,1.5-0.2,3.1-0.3
		c0.2,0.2,0.8-0.1,1.1,0.1c0.4-0.1-0.5-0.1,0-0.2c1.1,0,1,0.1,2.1-0.1c0-0.1-1,0.1-0.8-0.1c0.7,0,1.2-0.1,1.8-0.2
		c0.1,0.1,0,0.2-0.1,0.3c0.4,0,0.5-0.1,0.4-0.2c0.8-0.1,0.9,0,1.2,0.1c-0.7,0.4-3.5,0.2-4.4,0.6c-1.8,0-3.4,0.2-5.2,0.2
		c0,0.1,0.5,0,0.6,0.1c0,0.2-0.9,0.2-0.9,0C108.4,43.3,108.4,43.4,108.6,43.6z M114.2,17.5c-0.1,0.1-0.7,0.2-0.9,0.2
		C113.5,17.6,113.8,17.5,114.2,17.5z M113.7,17.2c0.1,0.2-0.7,0.2-0.6,0L113.7,17.2z M114.3,20.9c-0.3,0.1-1.6,0.2-1.4-0.1
		C113.4,20.9,113.7,20.9,114.3,20.9z M113.2,17.7c-0.8,0.3-2.2,0.1-2.9,0.3c0.2-0.1,0.4-0.2,0.4-0.3c0.7,0,1.3,0.1,1.9,0
		C112.7,17.7,112.7,17.8,113.2,17.7z M115.9,41.9c-0.1,0.1-0.8,0.1-1.2,0.1C114.9,41.8,115.3,41.9,115.9,41.9z M112.3,19.7
		c-0.1,0.1-0.1,0.1-0.1,0.2c-0.5,0.1-0.3-0.1-0.8,0C111.4,19.8,111.9,19.7,112.3,19.7z M111.9,20.2l0,0.1c-0.7,0.2-1.1,0-1.9,0
		C110.6,20.2,111.2,20.3,111.9,20.2z M110,20.4c-1.2,0.2-2.2,0-3.7,0.3c0.1-0.1,0-0.1,0.1-0.3c0.7,0.1,2.1,0.1,2.4-0.1
		c0.3,0,0.3,0.1,0.3,0.2c0.4-0.1,0.2-0.1,0.1-0.2C109.7,20.2,109.6,20.4,110,20.4z M112.7,41.7c0,0.2-0.5,0-0.9,0.1
		C112,41.6,112.3,41.7,112.7,41.7z M111,40.4c-1.6,0.3-4.3,0.4-6,0.5c-0.4,0.1,0.2,0.2,0.5,0.2c-0.1,0.2-0.6,0-0.9,0.1
		c0-0.1,0.2-0.1,0.1-0.2c-0.1-0.1-0.7,0-1.1,0c2-0.6,4.1-0.4,7.1-0.7C110.8,40.3,110.8,40.4,111,40.4z M111.1,43.3
		c-0.1,0.1-0.6,0.1-0.9,0.2c0-0.1-0.2-0.1-0.2-0.2C110.6,43.2,110.5,43.4,111.1,43.3z M106,20.5c0,0.2-0.6,0.2-1.2,0.3
		c0-0.1,0.2-0.1,0.1-0.2C105.3,20.6,105.5,20.5,106,20.5z M107.7,43c0,0.1-0.2,0.2-0.1,0.4c-0.8,0-1.2-0.1-2.1-0.1
		C106,43,106.8,43.1,107.7,43z M103.2,44.2c0.2,0,0.5,0,0.7-0.1c-2.4,0.3-5.7,0.6-8.7,0.6c-0.2,0-0.1,0.1-0.3,0.1
		c-0.4,0-0.6,0-0.9,0c0-0.2,0.7-0.1,1.2-0.2c0-0.1,0-0.1-0.2-0.1c1.5-0.2,4.1-0.2,6.2-0.7c0.5,0,1,0.1,1.2,0.2
		c0.4-0.1-0.1-0.2,0-0.2c0.4-0.1,0.7,0.1,0.9,0c0.4,0,0.2,0.1,0.2,0.2c0.7-0.1,1.3-0.2,1.8-0.2c0.1-0.2-0.5,0-0.8,0
		c0.4-0.2,1.5-0.2,1.9-0.1c0.1,0.2-0.7,0.4,0.2,0.3c-0.6,0.2-2.4,0-2.7,0.2c1.1,0,3.1-0.3,3.8,0c-1.6,0.3-2.9,0.1-4.6,0.3
		L103.2,44.2z M107.1,42c0,0.1-0.3,0.3-0.6,0.2C106.5,42.1,106.9,42.1,107.1,42z M105.7,42.4c0,0,0.1-0.1,0.1-0.1
		c-1.9,0.1-2.1,0.2-3.7,0.4c-0.7-0.5,2.8-0.6,3.7-0.7C106.4,42.1,106.6,42.3,105.7,42.4z M104.9,43.2c-0.1,0.1-0.5,0.2-0.6,0.3
		c-0.2-0.1-1.3,0.1-1.4-0.1C103.7,43.5,104.1,43.2,104.9,43.2z M98.9,41.5c0,0-0.2,0-0.3,0c0-0.1,0.4,0,0.4-0.1
		c-0.2-0.1-0.9,0-1.4,0c0.6-0.3,2.1-0.3,2.6-0.5c0.2,0.1,0.1,0.3,0,0.3c0.2,0.2,0.3,0,0.6,0.1c0.4-0.1-0.5-0.1-0.3-0.2
		c1.2-0.1,1.4,0,1.9-0.2c0.5,0,0,0.1,0.9,0c0.1,0.3-0.9,0.1-1.3,0.3c0.5,0.2,1.9-0.3,2,0c-1.9,0.1-4.2,0.6-6.3,0.4
		C98.2,41.3,98.4,41.5,98.9,41.5z M102.9,43.1c0.5,0-0.3,0.2,0.2,0.2c-0.1,0.2-0.5,0-0.6,0C102.4,43.1,102.9,43.2,102.9,43.1z
		 M102.4,43.3c-1.1,0.2-3.6,0.3-3,0C100.1,43.5,101.1,43.2,102.4,43.3z M99.3,39.5c0.2,0-0.1,0.1,0.2,0.1c-0.3,0.2-1.3,0.1-1.8,0.1
		C97.8,39.5,99,39.7,99.3,39.5z M97.8,39.6l-0.7,0c0.1-0.1,0.2-0.1,0-0.1c0-0.1,0.4,0,0.4-0.1C97.7,39.4,97.8,39.5,97.8,39.6z
		 M98.9,43.5c-1,0.2-3.2,0.2-4.9,0.4c1-0.5,2.7-0.3,4.3-0.5C98.2,43.6,98.7,43.5,98.9,43.5z M93.2,39.6c-0.4-0.1-1.3,0.2-1.5,0
		c-0.3,0.1-0.5,0.2-1,0.2c-0.1-0.1-0.4-0.1-0.2-0.2c0.3,0,0.2,0.1,0.5,0.1c0.3,0,0.3-0.2,0-0.1c1.5-0.2,2.2-0.3,3.6-0.2
		c-0.3,0.1-0.7,0.3-1,0.2c0,0.3,0.7,0.1,1.1,0c0,0.1,0.6,0.2,0.3,0.2c0,0.2-0.7,0.1-1.2,0.2c0.4,0.1,1.7-0.1,1.9-0.1
		c-0.1-0.1-0.3-0.2,0.3-0.3c0,0.3,0.7,0.4,1.6,0.3c-0.1,0.1-0.1,0.1-0.1,0.2c-1.6-0.1-4.9,0.5-7.2,0.5c0-0.1,0.2-0.1,0.1-0.2
		c-0.5,0.1-0.5,0.2-1,0.3l0-0.2c-0.3,0-0.3,0.1-0.6,0.1c-0.3,0.1,0.2,0.1-0.1,0.2l-0.7,0c0-0.1,0-0.1-0.2-0.1c0.3-0.1,0.4-0.3,1-0.3
		c-0.1,0-0.2-0.1-0.2-0.2c0.4,0.1,0.8-0.1,1.2,0c0.2,0,0.3-0.1,0.3-0.2C91.2,39.7,91.9,39.7,93.2,39.6z M93.3,44.4
		c-0.1-0.1,0.2-0.2,0.3-0.3c0.9,0,1.1,0,2-0.1c-0.9-0.2,1.9-0.3,2.1-0.1C96.2,44.2,94.3,44.1,93.3,44.4z M93.9,44.6
		c0,0.1-0.7,0.1-0.7,0C93.3,44.4,93.7,44.5,93.9,44.6z M93,44.2c0.1,0.2-0.2,0.2-0.7,0.2c-0.1-0.1,0.3-0.1,0.3-0.2
		c-1.2-0.1-2.4,0.2-2.9-0.2c1.1,0,1.4-0.1,2.2-0.3c0.2,0,0.3,0.1,0.6,0.1C92.3,44,92.1,44,91.7,44C91.9,44.1,92.3,44.2,93,44.2z
		 M88.2,44.5c-0.1,0.1-0.9,0.1-0.8,0c0.1,0,0.3-0.1,0.6-0.1C88,44.5,88,44.5,88.2,44.5z M81.5,18.9c-0.3,0.2-0.8,0-1.3,0
		c-0.1-0.1,0.8,0,0.7-0.1C81.2,18.7,81,18.9,81.5,18.9z M76.8,19.8c-0.8,0.1-1.7,0-2.5,0.3c-0.5,0-0.3-0.2-0.9-0.1
		c-0.2-0.1,0.4-0.2,0-0.2c0.7-0.2,1.2-0.2,2-0.3c0.2,0.1,0.2,0.2,0,0.2C75.9,19.7,76.5,19.7,76.8,19.8z M77.3,44.1
		c0,0.1-0.6,0.1-0.9,0.1C76.4,44,77.1,44,77.3,44.1z M76.8,45c-0.1,0.1-0.7,0.1-1,0.1C75.8,44.9,76.2,45.1,76.8,45z M71.1,44.8
		c0.5,0.1-0.3,0.2-0.7,0.2C70.1,44.7,71.1,44.9,71.1,44.8z M63.7,23.3c-0.5,0.1-1.1,0.1-0.9,0.3c-1.1,0.1-1.6-0.5-0.7-0.7
		C62.8,23,63.7,22.9,63.7,23.3z M60.3,40.2c0.1,0.2-0.3,0.2-0.7,0.2c0-0.1-0.2-0.1-0.2-0.2C59.7,40.2,60.1,40.2,60.3,40.2z
		 M48.5,24.6c0.1,0.2-0.5,0.2-0.9,0.3c0,0.4,0.6,0.5-0.1,0.8c-0.6,0.1-0.7-0.1-1.1-0.1c-0.2-0.4-0.1-0.4,0.2-0.8
		c0.4-0.1,1.2,0,1-0.3C48,24.6,48.3,24.6,48.5,24.6z M48.6,34.5c-0.1,0.1-0.8,0.1-0.9,0c0.1-0.1,0.3-0.1,0.6-0.1
		C48.3,34.5,48.4,34.5,48.6,34.5z M45.8,25.4c-0.3,0-0.3,0-0.6,0c-0.1-0.1,0.2-0.1,0.1-0.3C45.5,25.2,45.8,25.2,45.8,25.4z
		 M47.1,41.6c0.1,0.2-1.1,0.2-0.9,0C46.4,41.5,46.7,41.6,47.1,41.6z M40.8,41.2l-0.3,0c0-0.2-0.4-0.2,0.3-0.3
		C40.7,41.1,41.1,41.1,40.8,41.2z"/>
	<path class="st0" d="M194.2,15.6c0.7,0.1,1.6-0.1,2.4-0.3c-0.1,0.2,0.4-0.1,0.5,0.1c-0.3,0.2-2.3,0.1-2.8,0.4c0.1,0.1,0.4,0,0.6,0
		c0.2,0.1-1.3,0.1-1.2,0C194.3,15.7,194.5,15.7,194.2,15.6z"/>
	<path class="st0" d="M194.8,39.1c-0.3,0-0.2,0.2-0.6,0.1c-0.7,0-1.5,0-1.9,0.3c-0.3,0-0.3,0-0.2-0.1c-1.7,0.3-3,0.3-4.6,0.7
		c0.4-0.2-1.5,0-1,0.1c-2.1,0-5.2,0.4-7,0.8c0.7-0.1,2.1-0.1,2.7-0.3c-0.3,0.2,0.7,0,0.7-0.1l0,0.1c6.4-0.6,13.5-1.3,19.1-1.7
		c0.6-0.2,2.7-0.2,3.2-0.6c0.8,0,1.1,0.1,1.9-0.1c-0.3,0.3,0.9-0.1,0.8,0.2c0.7-0.2,1.5,0,1.8-0.2c-0.9,0-1.5,0.2-1.8,0
		c0.9,0,1.8-0.2,2.4-0.1c0.7-0.1,1.9-0.4,2.5-0.3c0-0.2,0.8,0,1.2-0.2c0-0.1-0.2-0.1,0-0.1c0.6-0.2,1.3,0,1.8-0.2
		c-0.2,0-0.4,0-0.3-0.1c0.4-0.1,0.5,0,0.9,0c0-0.2-0.7,0-0.9-0.1c-0.3,0.2-2,0.3-2.2,0.2c0.5-0.1,0.6-0.3,1.2-0.2
		c0.1-0.1-0.3-0.1-0.3-0.2c-0.5,0-0.5,0.2-1,0.2c0.1-0.1,0.4-0.2,0.5-0.3c-0.5,0-0.4,0.2-0.9,0.3c-0.2-0.1,0.4-0.2,0-0.2
		c-0.3,0.2-0.8,0-1.1,0c0.2,0.3-0.7,0-1,0.2c0.4-0.1,0.9,0.1,0.5,0.2c-0.4-0.1-0.6,0-1.2,0c0,0-0.1,0-0.2-0.1
		c0.7-0.1,0.5-0.3,0.1-0.1c-0.9,0-1.9,0.1-2.6,0.1c0.2,0,0.3,0,0.5,0.1c-0.9,0.1-0.8-0.1-0.9,0.1c-0.6,0.1-0.6-0.2-0.9-0.2
		c0.2,0.2-0.7,0.1-0.6,0.3c0.3,0,0.9-0.1,0.8,0c-1,0.1-1.1,0.1-1.9,0.2c0-0.1-0.2-0.1-0.2-0.2c0.5,0,1.1,0,1.2-0.2
		c-0.9,0-1.3,0.2-1.8,0.4c-0.4-0.1-0.9,0-0.9,0.1c-0.4,0-0.2-0.2-0.1-0.3c-0.9,0.1-1.2,0.2-1.8,0.1c0.2,0,0.2-0.1,0.3-0.2
		c-0.6,0.2-0.7,0.1-1.2,0.1c-0.5,0.2-2.4,0.5-3.4,0.4c-0.6,0.2-1.1,0.2-2.5,0.4c-0.2,0.2,0.9-0.1,0.9,0.1c-0.2,0.2-1.2,0.4-1.6,0.2
		c-0.1-0.1,0.7,0,0.4-0.2C191.9,39,194,39.1,194.8,39.1z M210.4,37.7l0,0.1c-0.5,0.1-0.4,0-0.6,0C209.8,37.7,210.2,37.7,210.4,37.7z
		 M209.2,37.6c-0.5,0.2-1.1,0.5-1.9,0.4l0-0.2c0.3-0.1,0.6,0.1,0.7-0.1c0.5,0-0.1,0.1-0.1,0.2C208.2,37.9,208.4,37.5,209.2,37.6z
		 M202,38.3c-0.3,0.2-1.6,0.3-1.8,0.1C200.8,38.3,201.6,38.2,202,38.3z M201.1,38c-0.1,0.1-0.8,0.2-1.3,0.2
		C199.9,38,200.5,38,201.1,38z M199.9,38.4c-0.2,0.1-0.5,0.1-0.9,0.2C198.9,38.4,199.7,38.3,199.9,38.4z M199.3,38
		c0.1,0.1-0.2,0.2-0.6,0.2C198.6,38.1,198.9,38.1,199.3,38z M198.9,38.5c-0.2,0.3-1.9,0.1-1.7-0.1C197.7,38.5,198.2,38.5,198.9,38.5
		z M197.6,38.8c0.2,0-0.6,0.1-1.2,0.2C196.5,38.7,197.2,38.7,197.6,38.8z M196.9,38.3c0.2,0.1-0.4,0.3,0.1,0.3c-0.7,0-0.9,0-2,0.1
		C195.2,38.5,196,38.4,196.9,38.3z"/>
	<path class="st0" d="M314.8,10.5c-0.2,0.1-1.2,0.3-1.3,0.1C314.1,10.6,314.1,10.5,314.8,10.5z"/>
	<path class="st0" d="M303,14.1c-0.2,0.1-0.4,0.2-0.9,0.2c0-0.1-0.5-0.1-0.5-0.2C302.1,14.2,302.4,14.3,303,14.1z"/>
	<path class="st0" d="M296.4,17.7c0.5-0.1,0.4,0.1,0.9,0.1c-0.1,0.1-0.9,0.1-0.8,0c-0.2,0-0.3,0.1-0.3,0.2
		C295.7,17.9,296.1,17.8,296.4,17.7z"/>
	<path class="st0" d="M281,22.3c0,0.1-0.3,0.2-0.5,0.3C278.3,22.7,280.7,22.6,281,22.3z"/>
	<path class="st0" d="M280.6,23.8c0.2,0,0,0.1,0,0.1c-0.5,0-1,0-1.5,0C279.4,23.7,280.3,24,280.6,23.8z"/>
	<path class="st0" d="M279.4,32.7c0.2,0,0.1-0.1,0.1-0.2c1-0.1,1.7,0.2,2.6-0.1c-0.1-0.1-0.8,0.1-0.9,0c0.4-0.1,0.6,0,1.2-0.2
		c0.2,0.2,0,0.1,0.2,0.3c-1.2,0.2-1.1,0.1-2.7,0.3c0.4-0.2-0.8,0-0.8-0.1c0.1,0.2-0.5,0.2-0.9,0.1c-0.4,0.1,0.2,0.1-0.1,0.2
		c-0.5-0.1-1.7,0.2-1.5,0c-0.2,0-0.3,0-0.3,0c-0.4,0.1,0.3,0.2-0.4,0.2c0.5-0.2-0.4-0.1-0.6-0.1c0.7-0.4,2.7-0.3,3.7-0.6
		C279.2,32.5,279.3,32.6,279.4,32.7z"/>
	<path class="st0" d="M281.1,26.8c0.2,0.1-1.1,0-1.6,0.1C279.9,26.8,280.6,26.9,281.1,26.8z"/>
	<path class="st0" d="M278.3,23.6c-0.2,0.1-0.8,0-1.3,0.1c-0.1-0.1,0.8,0,0.7-0.2C277.9,23.5,278,23.6,278.3,23.6z"/>
	<path class="st0" d="M265.4,22.7c-0.4,0.1-1,0.1-1.6,0.2C264.1,22.8,264.9,22.7,265.4,22.7z"/>
	<path class="st0" d="M260,30.1c-0.1,0.1-0.9,0.2-1.3,0.2C258.9,30.2,259.6,30.2,260,30.1z"/>
	<path class="st0" d="M255.8,31.9c-0.2,0.1-1,0.1-1,0.3C254.3,32.1,255.5,31.8,255.8,31.9z"/>
	<path class="st0" d="M253.1,34.9c-0.2,0.2,0.7,0.3,1.2,0.1c-0.2,0.2-1.7,0.3-2.3,0.5c0.5-0.1,0.5-0.3,0.9-0.3c0.3,0,0-0.2-0.2-0.2
		C252.6,35,253.1,35,253.1,34.9z"/>
	<path class="st0" d="M243.9,11.9c-1.2,0.3-3.4,0.2-4.4,0.7c-0.1-0.1-0.8,0-0.8-0.2c1.5,0,2-0.3,3.1-0.2
		C242.2,11.9,243.4,11.9,243.9,11.9z"/>
	<path class="st0" d="M247.2,31.6c-0.2-0.1-0.2,0-0.6,0c-0.6,0,0.6,0,0.3-0.2c0.4-0.1,0.8-0.1,0.8,0.1c-0.1,0-0.1,0-0.2,0
		C247.4,31.5,247.3,31.6,247.2,31.6C247.1,31.7,247.1,31.6,247.2,31.6z"/>
	<path class="st0" d="M242.6,32.1c-0.3,0-0.6,0-0.6-0.1c0.7,0,0.7-0.2,1.2-0.2c0,0-0.2,0-0.3,0c0.7-0.3,2.2-0.3,3.3-0.2
		c0,0.1-0.3,0.2-0.4,0.2C245.5,31.5,243.2,31.9,242.6,32.1z"/>
	<path class="st0" d="M241.6,35.3c-0.4,0-0.4,0.1-0.9,0.1c0.1-0.1,0.2-0.1,0.3-0.2c-2.2,0.4-5.7,0.3-8,0.9c-0.8-0.2-1.7,0.4-2.3,0.1
		c0.1,0.1,0.1,0.1,0,0.2c1-0.3,2.6-0.3,2.7,0c-0.1-0.3-0.2,0.3-0.7,0.1c-0.2,0.1,0.4,0.1,0,0.2c-0.3,0-0.6-0.1-0.8-0.2
		c-0.3,0-0.6,0.1-0.9,0.2c0-0.1,0-0.1-0.2-0.1c0.2,0.3-0.8,0.1-1,0.1c0.3,0.1,1.2,0,1.4,0.2c0.1-0.2,0.3-0.1,0.7-0.1
		c0,0.1,0,0.1,0.2,0.1c0.1-0.1,0.7,0,1-0.1c-0.3,0-0.3,0-0.2-0.1c0.7,0,1.6-0.2,2.4-0.1c0-0.3,0.6-0.2,1.2-0.2
		c0-0.1-0.1-0.2,0.1-0.2c0.3,0,0.3,0.1,0.5,0.2c-0.3,0-0.9,0.2-0.4,0.2c0-0.1,1-0.1,1-0.2c-0.3,0-0.5,0-0.5-0.1
		c0.4,0.1,0.3-0.1,0.9-0.1c0-0.1,0-0.3,0.2-0.4c0.4,0.2,0.8-0.2,1.3-0.2c0.4,0.1,0.8,0.2,1,0.4c0.5-0.1,0.6-0.1,0.7-0.1
		c-0.3,0-0.3-0.1-0.5-0.2c0.9-0.2,1.2-0.2,2.2-0.2c0.2-0.2,0.4-0.2,0.9-0.2C243.7,35.1,242,35.6,241.6,35.3z M235.8,36
		c0.2,0,0.1,0.1,0.2,0.1c-0.2,0.1-0.4,0.1-0.7,0.1C235,36,236.1,36.2,235.8,36z"/>
	<path class="st0" d="M238.2,12.6c0.3,0.1-0.7,0-1.2,0.1c0.2-0.2,0.8-0.2,1.3-0.3C238.1,12.5,237.6,12.6,238.2,12.6z"/>
	<path class="st0" d="M238.3,32.2c0.3,0,0.2-0.2,0.6-0.2c0.2,0.1,0.3,0.2,0.6,0.2c0,0.1-0.3,0.1-0.3,0.1c-0.3-0.2-1.1,0-1.3-0.3
		C238.1,32.1,238.3,32.2,238.3,32.2z"/>
	<path class="st0" d="M237.8,32.3c0.1,0.2-0.3,0.1-0.3,0c-0.2,0-0.4,0-0.4,0.1c-0.4,0,0.2-0.2,0.4-0.2
		C237.5,32.3,237.6,32.3,237.8,32.3z"/>
	<path class="st0" d="M233.4,12.2C233.3,12.3,233.4,12.3,233.4,12.2c-0.3,0.2-1.4,0.2-1.7,0.3c0,0,1.9-0.6,2-0.3
		C233.6,12.3,233.5,12.3,233.4,12.2z"/>
	<path class="st0" d="M231.3,12.3c0.2-0.1-0.8-0.1-1.2-0.2c0.1,0.1-1.5,0.2-2.6,0.3c0.5-0.2,3.3-0.6,3.7-0.3c0.8,0,0.9-0.1,1.6-0.1
		c-1,0.3-3.2,0.5-4.3,0.5C228.8,12.5,230.6,12.4,231.3,12.3z"/>
	<path class="st0" d="M231.9,32.8c0.6,0,0,0.1,0,0.2l-0.7,0.1c0.3-0.1-0.1-0.1-0.2-0.2c-0.5,0,0,0.3-0.7,0.3
		c-0.1-0.1,0.3-0.1,0.3-0.2c-0.5,0.2-1.1,0.2-1.6,0.2c0.2-0.2,0.5-0.1,0.9-0.1c0.1-0.1,0.4-0.2,0.4-0.3c0.1,0,0.3,0,0.6,0
		c0,0.1-0.3,0.1-0.4,0.1C230.6,32.9,231.7,33,231.9,32.8z"/>
	<path class="st0" d="M226.9,12.8c-0.2-0.1-0.4-0.1-0.6-0.1c0-0.1,0.4-0.1,0.6-0.1c-0.2,0.1-0.1,0.2,0.3,0.1
		c-0.3,0.1-0.3,0.3-0.8,0.3C226.1,12.9,226.7,12.9,226.9,12.8z"/>
	<path class="st0" d="M225.2,13.4c-0.3,0.2-0.8,0-1.2,0.2C224.1,13.3,224.9,13.4,225.2,13.4z"/>
	<path class="st0" d="M228.3,33.3c-0.3,0-0.6,0-0.6,0c-0.4,0.1-0.2,0.1-0.1,0.2l-0.6,0.1c0.7-0.2-0.3-0.1-0.3-0.2
		C227.3,33.3,228,33.1,228.3,33.3z"/>
	<path class="st0" d="M224.6,33.6c0.6,0,0.9-0.2,1.2-0.1c0,0.1-0.2,0.1-0.3,0.2c-0.4,0-1.4,0-0.9-0.2
		C224.8,33.5,224.5,33.5,224.6,33.6z"/>
	<path class="st0" d="M221.7,25.7c-0.1-0.1,1.8-0.3,1-0.2C222.3,25.6,222.4,25.7,221.7,25.7z"/>
	<path class="st0" d="M221.7,25.5c-0.3,0.2-1.1,0.1-1.5,0.1C220.5,25.5,221.1,25.6,221.7,25.5z"/>
	<path class="st0" d="M220.2,33.5c0.1,0.1,0.5,0,0.5,0.2c-1.1,0.1-1.4,0.1-2.2,0.2c0.3-0.1,0.1-0.1,0.3-0.3l0.4,0
		c0,0.1-0.3,0.1-0.4,0.1C218.9,33.8,220.2,33.6,220.2,33.5z"/>
	<path class="st0" d="M218.1,35.1c-0.5,0.1-1,0-1.8,0.2C216.8,35.1,217.5,35.1,218.1,35.1z"/>
	<path class="st0" d="M216.8,37.3c0.5-0.1,0.2,0.2,0.8,0c-0.1,0.1-0.7,0.2-0.7,0.4C216.5,37.5,217.6,37.4,216.8,37.3z"/>
	<path class="st0" d="M216.4,34.9c-0.3-0.1-0.9,0-1.4,0l0,0.1C214.3,34.8,216.4,34.6,216.4,34.9z"/>
	<path class="st0" d="M214.3,36.8c0.1,0.1-0.1,0.1-0.1,0.2c-0.3,0-0.3-0.3-0.9-0.1c-0.5,0,0.3-0.1,0.3-0.2
		C213.8,36.8,213.9,36.9,214.3,36.8z"/>
	<path class="st0" d="M213.7,35c-0.2,0.2-1,0.1-1.3,0.1c0.1,0,0.1-0.1,0.1-0.2c-0.6,0.2-0.4-0.1-0.9-0.1c-0.2,0-0.1,0.1-0.3,0.1
		c-0.5,0.1-0.7,0-0.6-0.1c0.8,0,0.7,0,1.5-0.1l0,0.1c0.3,0,0.6,0,0.8,0c-0.1-0.1-0.2-0.2,0.1-0.3c0-0.1-0.7,0.1-0.5-0.1
		c0.3,0,0.6,0,0.9,0.1c-0.6,0.1-0.3,0.2-0.1,0.4c-0.3-0.1-0.4,0-0.7,0.1C212.5,35.1,213.2,35,213.7,35z"/>
	<path class="st0" d="M213.5,37.1c-0.4,0-0.5-0.1-0.9,0c0-0.1-0.1-0.1-0.3-0.1C212.3,37,213.4,36.9,213.5,37.1z"/>
	<path class="st0" d="M210.8,35c-0.4,0.2-0.8,0-0.9-0.1c-0.1,0-0.1,0.1-0.4,0.1C209.7,34.7,210.3,35,210.8,35z"/>
	<path class="st0" d="M197.9,13.5c-0.3,0.1-1.3,0.1-1.9,0.1C196.4,13.5,197.4,13.5,197.9,13.5z"/>
	<path class="st0" d="M197.9,25.5c0.3,0,0.5-0.1,0.3-0.1c0.8-0.1,0.9,0,0.2,0.2c-0.2,0-0.3-0.2-0.5,0
		C197.7,25.6,197.9,25.6,197.9,25.5z"/>
	<path class="st0" d="M192.8,25.9c0,0.1-0.1,0-0.1,0c-0.2,0.1-0.2,0.2-0.7,0.2C192,26,192.5,25.9,192.8,25.9z"/>
	<path class="st0" d="M190,14.3c-0.4,0.2-0.9,0.1-1.5,0.1C188.6,14.3,189.4,14.4,190,14.3z"/>
	<path class="st0" d="M173.5,15.3l0.3,0c0,0,0.1,0,0.2,0c-0.4,0.1-0.6,0.2-1.1,0.3C172.7,15.4,173.4,15.5,173.5,15.3z"/>
	<path class="st0" d="M167.9,15.9c0.3-0.1,1.5,0,0.7-0.2c1.3,0.1,2.4,0,3.6-0.2c-1,0.1-1.1,0-1.7-0.1c1-0.2,1.6,0.1,2.2-0.2
		c-0.2,0-0.1-0.1,0-0.1c-0.4,0-0.9,0.1-0.9,0c0.1-0.1,1.2,0,1.3-0.2c-3.7,0.4-6.6,0.6-10.3,0.8c0.2,0.1,0.7,0,0.9,0.1
		c-0.1,0-0.3,0-0.3,0.1c0.1,0,0.3,0,0.3,0c-0.6,0-1.4,0.2-1,0.2c0.2-0.2,0.9-0.1,1.3-0.1c0.4-0.1-0.4-0.2,0.2-0.3
		c1,0.1,2.5-0.3,3-0.1c-0.5,0.2-2.1,0-2.5,0.4c0.8-0.1,1.8-0.3,2.5-0.1c0.1-0.1,0.3-0.1,0.4-0.2C168.3,15.8,167.6,15.9,167.9,15.9z
		 M170.4,15.5c0.1,0.2-0.6,0.2-0.9,0.2C169.7,15.6,170,15.6,170.4,15.5z"/>
	<path class="st0" d="M173,17.4c0,0.1-0.6,0.1-0.9,0.1c0.1-0.1,0.2-0.1,0-0.1C172.1,17.3,172.6,17.5,173,17.4z"/>
	<path class="st0" d="M163.2,17.3c-0.4,0.1-1.2,0.3-1.9,0.3C161.8,17.4,162.6,17.4,163.2,17.3z"/>
	<path class="st0" d="M162.1,17.1c0.2,0,0.1,0.1,0.2,0.2c-0.4,0-1.3,0.3-1.2,0C161.6,17.2,162.2,17.3,162.1,17.1z"/>
	<path class="st0" d="M156.3,16.4c0,0.1,0,0.1,0.2,0.1c-0.5,0.2-1.1,0.1-1.6,0.1C155.2,16.4,155.8,16.5,156.3,16.4z"/>
	<path class="st0" d="M158.8,42.2c0.4-0.1,0.9,0.1,0.5,0.2C159.3,42.5,159.1,42.2,158.8,42.2z"/>
	<path class="st0" d="M154.2,17.9c0.3,0,0.3,0,0.6,0c-0.3,0.2-0.5,0.1-1.2,0.2C153.2,18.1,154.4,18.1,154.2,17.9z"/>
	<path class="st0" d="M150.1,18c-0.6,0.2-1.8,0.1-2.5,0.4C148.1,18.1,149.3,18.1,150.1,18z"/>
	<path class="st0" d="M148.5,17.8c0-0.1-0.1-0.1-0.3-0.1c0-0.1,0.4-0.1,0.6-0.1c0.1,0.1-0.6,0.4-0.6,0.2L148.5,17.8z"/>
	<path class="st0" d="M151,43.1c0.2,0.1-1-0.1-1.3,0.1c0.4-0.2-0.3-0.2-0.6-0.2c0.3-0.2,0.7-0.1,1.3-0.2
		C149.7,43,150.6,43.1,151,43.1z"/>
	<path class="st0" d="M149.8,48.1c0-0.1,0.5-0.1,0.7-0.1c0,0.2-0.6,0.4-1.3,0.4C149.7,48.1,149.7,48.1,149.8,48.1z"/>
	<path class="st0" d="M141.7,17.4c-0.1,0.2-0.7,0.1-1.2,0.1C140.6,17.4,141.2,17.5,141.7,17.4z"/>
	<path class="st0" d="M131,44.9c0.1-0.1,0.2,0,0.4,0c-0.2,0.1-0.5,0.1,0.2,0.1c0.1,0.1-0.8,0.2-1.2,0.1C130.4,45,131.5,45,131,44.9z
		"/>
	<path class="st0" d="M114.2,45.8c0.4,0-1,0.2-1.2,0.3c-0.2-0.1-0.8-0.2-1.1-0.1c-0.3-0.2,0.8,0,1.5-0.1c-0.1-0.1-0.4-0.1-0.6-0.1
		C113.1,45.7,113.5,45.9,114.2,45.8z"/>
	<path class="st0" d="M109.3,45.6c0.3,0,0.9-0.1,0.8,0c-0.9,0-1,0.3-0.5,0.4c-0.1,0.1-0.3,0.1-0.3,0.2
		C108.7,46.1,109.3,45.8,109.3,45.6z"/>
	<path class="st0" d="M106.9,46.3c0.1-0.2-0.5-0.3-0.2-0.3c0.5,0,0.1,0.2,0.5,0.3C106.9,46.3,106.9,46.4,106.9,46.3
		c-0.9,0.1-1.2,0.3-2.4,0.3c0.1-0.1,0.5-0.2,0.7-0.1c-0.4-0.2,0.5-0.2,1-0.4l0,0.2L106.9,46.3z"/>
	<path class="st0" d="M101,49c0.2-0.3-0.5-0.1-0.8-0.2C100.6,48.6,102.1,48.9,101,49z"/>
	<path class="st0" d="M93.9,46.5c0.3,0,2.1-0.1,0.5,0.1C94.2,46.5,94.1,46.5,93.9,46.5z"/>
	<path class="st0" d="M92.1,46.8c0.5-0.1,1-0.2,1.8-0.2c-0.3,0.1,0.2,0.2,0.3,0.3c-0.4,0.1-1.1,0.1-1.2-0.1
		c-0.2,0.1,0.1,0.1-0.1,0.2c-0.2-0.1-0.7,0-0.9,0.1C91.7,47,92.6,47,92.1,46.8z"/>
	<path class="st0" d="M92.2,46.4c-0.6,0.3-3,0.7-4.6,0.8c-0.2,0-0.1,0.1-0.1,0.2c-0.4,0-0.5-0.1-0.3-0.2c-0.7,0-0.7,0.1-1.1,0
		c-0.2,0-0.3,0.1-0.3,0.2c-3.2,0.1-5.8,0.4-7.9,0.7c0.4-0.2-0.5-0.1-0.3-0.3c-0.1,0-0.2,0.1-0.4,0.1c0.1,0.1,0.6,0,0.5,0.2
		c-0.7,0-1.1,0-1.4-0.2c0.2-0.2,0.8,0.2,0.7-0.1c4.6-0.3,7.1-0.4,12.3-0.7c0.4,0,0.3-0.1,0.4-0.2c0.1,0.1,0.7-0.1,0.8,0
		c0.2-0.1,0.5-0.1,0.4-0.2C91.3,46.5,92.1,46.5,92.2,46.4z"/>
	<path class="st0" d="M79.7,43.1c0,0.1-0.7,0.1-0.9,0.2c0.1,0,0.3,0.1,0.5,0.1c-0.9,0.4-2.5,0.2-3.9,0.4c0.4-0.3-3-0.2-3.3,0.1
		c-0.5,0.1-0.3-0.1-0.6-0.1c-0.4,0.1-0.5,0.2-1,0.3c0.1-0.1,0.1-0.1,0.1-0.2c-0.6,0.1-1-0.2-1.5-0.3c-0.2,0.2-0.6,0.1-1,0.1
		c0.6-0.1-0.1-0.2-0.8-0.1c0.8-0.2,1.1-0.4,2.1-0.4c0,0.1-0.3,0.1-0.3,0.2c0.5,0.1,1.3,0.1,2,0c0.2,0.1,0.2,0.2,0,0.2
		c0.4-0.2,1.8-0.1,2.1-0.4c0.3,0,0.6,0.1,1.1,0c-0.1,0.2-0.5,0-0.9,0.1c-0.1,0-0.2,0.1-0.3,0.2C74.8,43.4,77.6,43.3,79.7,43.1z"/>
	<path class="st0" d="M78,41.3c0.3,0.1,1.1,0,1.4,0.2c-0.6,0-1.5-0.1-1.8,0C77.2,41.5,77.9,41.4,78,41.3z"/>
	<path class="st0" d="M73.6,17c-0.1,0.1-0.1,0.1-0.1,0.2c-0.2-0.2-0.7-0.2-1.2-0.1c-0.1,0-0.1-0.1-0.3-0.1c0.1-0.2,0.4,0,0.9-0.1
		C72.8,17,73.2,17,73.6,17z"/>
	<path class="st0" d="M73.9,45.7c0.9-0.1,1.3-0.1,2.2-0.2c-0.1,0.1-0.2,0.1-0.4,0.1c0.1,0,0.2,0.1,0.2,0.1c-0.9-0.1-1.5,0-2.2,0.2
		C73.8,45.8,74.9,45.6,73.9,45.7z"/>
	<path class="st0" d="M71.8,45.9c0.3,0.1-0.6,0-0.5-0.2c0.1,0,0.3,0,0.6,0C72,45.8,71.4,45.9,71.8,45.9z"/>
	<path class="st0" d="M71.2,47.1c0,0-0.1,0-0.1,0.1l0,0.1c-0.2-0.2-1.8,0.1-1.7-0.2c0.3,0,0.3,0.1,0.3,0.1
		C70.3,47.1,70.8,47.1,71.2,47.1z"/>
	<path class="st0" d="M66,51c-0.4,0-0.5-0.1-0.9,0c0.3-0.1,0.7-0.3,1.2-0.2c0-0.1-0.2-0.1-0.2-0.2c0.5,0,0.6,0,1-0.1
		c-0.1-0.1-0.2-0.1-0.5-0.1c0.2-0.2,0.5-0.1,0.7-0.2c0.3,0,0,0.2-0.1,0.3c0.2,0,0.4,0.1,0.8,0.1c-0.1,0.1-0.3,0.1-0.3,0.2
		C66.8,50.8,66.3,50.8,66,51z"/>
	<path class="st0" d="M66.1,40.4C66.3,40.4,66.2,40.4,66.1,40.4c0.1,0.1,0.4,0.1,0.3,0.2c-0.5,0-0.7-0.1-1.1-0.1
		C65,40.3,66.2,40.5,66.1,40.4z"/>
	<path class="st0" d="M64.9,41.7c-0.2,0.1-0.3,0.2-0.9,0.3c0.5-0.3-0.9,0.1-1.3,0c-0.1,0-0.4,0.2-0.1,0.2c-0.7,0-3,0.1-3.9-0.1
		c-0.3,0.3-1.1,0-1.3,0.3c-0.3,0-0.1-0.2-0.3-0.2c-0.7,0.2-1.5,0-2.1,0.1c-0.2,0,0.1-0.4-0.5-0.2c-0.3-0.2,0.8-0.2,0.9,0
		c0.6-0.1,1.1,0,1.7,0c0.3,0,0.3-0.1,0.3-0.2c0.9,0,0.9,0.1,1.6-0.1c-0.2,0.5,2.1-0.1,2.9,0.2C62.6,41.8,63.7,41.8,64.9,41.7z"/>
	<path class="st0" d="M62.2,45.4c-0.1,0.1-0.5,0.1-0.9,0.2c-0.1,0.1,0.2,0.1,0.2,0.2c-0.8,0-1.2,0.2-1.8,0.3c0.3-0.3-3.1,0-3.4-0.4
		c-0.1,0-0.3,0.1-0.6,0.1c-0.3-0.1-0.7-0.2-1.4-0.2c-0.8-0.3-2.4-0.3-2.9-0.6c0.4,0.1,1.3-0.1,1-0.1c2.6-0.3,7.2,0.1,9.1-0.7
		c-0.5,0-0.9,0.3-1.9,0.3c0.8-0.2,0.8-0.4,1.9-0.6c0-0.1-1,0.1-0.8-0.1c0.2-0.1,0.5,0,1-0.1c-0.6,0.4,1.5,0.2,2,0.1
		c0,0.1-0.4,0.1-0.3,0.2c-0.6,0.1-1-0.1-1.3,0.1c0.7,0.3,1.7,0,2.9,0c-1.1,0.1-2.1,0.7-3.4,0.9c-0.6,0-1.4,0-1.5,0.3
		c-0.4,0-0.3-0.2-0.8-0.1c-0.5,0.1,0.1,0.3-1,0.3c-0.2,0-0.3,0.1-0.3,0.2c0.4,0.2,1.9-0.2,1.7,0.1c0.3,0,0.2-0.1,0.4-0.1
		c0-0.1-0.7,0.1-0.5-0.1c0.3-0.1,0.7-0.1,0.6,0.1C61.2,45.7,61.3,45.5,62.2,45.4z"/>
	<path class="st0" d="M63.1,41.4c0,0.1-0.4,0-0.7,0c-0.2-0.1-0.1-0.1,0.1-0.3C62.6,41.3,62.4,41.4,63.1,41.4z"/>
	<path class="st0" d="M56.8,41.9c-0.6,0-1.2,0.1-2,0C55,41.9,56.7,41.7,56.8,41.9z"/>
	<path class="st0" d="M54.6,44.1c0.1-0.4,1.8-0.1,2.6-0.1C56.2,44.1,55.2,44.2,54.6,44.1z"/>
	<path class="st0" d="M50.6,32.6c-0.6,0.1-0.5-0.2-0.9-0.2C49.4,32.3,50.8,32.4,50.6,32.6z"/>
	<path class="st0" d="M35,27.7c-0.1,0.1-0.4-0.1-0.7,0c0.1-0.1,0.4-0.2,0.7-0.2C34.9,27.6,34.5,27.7,35,27.7z"/>
	<path class="st0" d="M20.9,25.7c-0.3,0-0.3,0.1-0.6,0.1c0-0.2,1.1-0.2,1.3-0.2c-0.7,0.2,0.1,0.2,0.2,0.4c-0.3,0.2-0.9,0.3-0.4,0.4
		c-0.6-0.1-1.2-0.1-1.5-0.2C20.6,26.2,21.4,26.2,20.9,25.7z"/>
	<path class="st0" d="M4.9,27.2c0.6,0.1,0.4-0.1,0.1-0.2c0.1,0.2-1,0.1-1.8,0.2c-0.1-0.1-0.4-0.1-0.3-0.3c0.5,0,1.6,0.1,1.5-0.3
		c1.1-0.2,3-0.2,3.8-0.5c-0.5-0.5-1.5-0.2-2.7,0C5.6,26,5.1,26.1,4.9,26c0.7-0.6,2.6-0.2,3.8-0.2c-0.4,0.1,0.3,0.2-0.1,0.3
		c0.8,0.3,2.2,0.3,2.7,0.7c0.4,0,0.3-0.1,0.7-0.1c0,0.1,0,0.2,0.2,0.2c0.5-0.1,1.2-0.2,0.9,0.1c0.3,0,0.7,0,0.6-0.1
		c0.3,0.1,0.3,0.2,0.6,0.2c0.5,0,0.1-0.2,0.6-0.1c0.1,0.2,1.1,0.1,1.2,0.4c0.7-0.2,1.6,0.1,2,0.4c-1.9,0.5-3.2-0.1-5.8,0
		c0-0.3-0.8-0.3-1.7-0.2c-0.3,0-0.3-0.1-0.3-0.3c-0.5,0-1,0-1.3,0c-1.4,0.3-2.4,0.9-4.8,1c-0.2-0.2-0.3-0.1-0.8-0.1
		c0.7-0.2,1-0.4,1.6-0.6C4.8,27.5,4.9,27.3,4.9,27.2z"/>
	<path class="st0" d="M249.1,35.5c-0.3,0.2-1,0.3-1.3,0.4c-0.3,0-0.3-0.1-0.3-0.2c-0.2,0.1-0.3,0.1-0.3,0c-0.4,0.2-0.8,0.1-1.3,0.3
		c-0.3-0.1-0.5-0.2-1.2-0.1c1-0.2,2.1-0.1,2.7-0.3c0.3,0,0.5,0.2,0.9,0.2c0.4-0.1,0.5-0.3,1.1-0.3c0,0.1,0.1,0.2,0.3,0.1
		c-0.1,0-0.1,0.1-0.1,0.2C249.4,35.7,249.2,35.6,249.1,35.5z"/>
	<path class="st0" d="M216,35.2c-0.2,0.1-0.2,0.2-0.6,0.2c0-0.2-0.7-0.1-1.2-0.1c-0.1-0.2,0.9-0.1,1.3-0.2
		C215.7,35.1,215.6,35.3,216,35.2z"/>
	<path class="st0" d="M72.2,49.2c-0.1-0.1,0.5-0.1,0.4-0.3c0.2,0.2,1.1,0,1.1,0.3c0.8-0.1,1.3-0.3,1.1-0.7c1.5-0.4,3.6-0.3,4.5,0
		c0.6,0.6,0,1.1-1.2,1.2c-1.8,0.2-3.8-0.3-5.1,0c-0.5,0-2,0-2.7-0.1c0.1-0.2,0-0.1,0-0.3c0.6-0.1,1.5,0,1.5-0.3
		C72,49.1,72.1,49.1,72.2,49.2z"/>
</g>
</svg>
